<svg width="180" height="180" viewBox="0 0 180 180" fill="none" xmlns="http://www.w3.org/2000/svg">
<path d="M85.6405 178.943L85.5673 179.852L79.2346 179.34L79.3078 178.43L81.9629 178.645L82.5714 171.086L83.5938 171.169L82.9854 178.728L85.6405 178.943Z" fill="white"/>
<path d="M72.5735 169.615L70.5463 177.864L65.5824 176.637L65.8002 175.751L69.768 176.732L70.453 173.944L66.7422 173.027L66.96 172.141L70.6708 173.058L71.3598 170.255L67.3276 169.258L67.5454 168.372L72.5735 169.615Z" fill="white"/>
<path d="M53.5181 169.974C53.3994 170.38 53.4571 170.76 53.691 171.112C53.9249 171.465 54.2778 171.742 54.7497 171.943C55.0947 172.091 55.4203 172.164 55.7267 172.162C56.0304 172.16 56.2962 172.092 56.5241 171.957C56.7494 171.822 56.915 171.63 57.0209 171.381C57.1095 171.172 57.1362 170.971 57.1011 170.779C57.0623 170.588 56.9853 170.409 56.8702 170.243C56.754 170.079 56.6231 169.928 56.4777 169.791C56.3311 169.656 56.1936 169.539 56.0652 169.439L55.3645 168.887C55.1843 168.747 54.9898 168.577 54.7812 168.376C54.5701 168.175 54.3849 167.944 54.2258 167.684C54.063 167.425 53.9603 167.137 53.9176 166.821C53.875 166.505 53.9314 166.164 54.0871 165.798C54.2665 165.376 54.539 165.041 54.9045 164.794C55.2675 164.547 55.7023 164.412 56.2088 164.391C56.7128 164.369 57.2641 164.486 57.8628 164.742C58.4209 164.98 58.8658 165.277 59.1975 165.632C59.5266 165.986 59.7393 166.375 59.8354 166.798C59.929 167.22 59.9002 167.651 59.7491 168.091L58.7749 167.675C58.8749 167.369 58.8797 167.082 58.7894 166.815C58.6954 166.55 58.5352 166.313 58.3089 166.105C58.0789 165.898 57.8091 165.729 57.4996 165.597C57.1394 165.443 56.7911 165.363 56.4547 165.358C56.1172 165.355 55.8199 165.423 55.5628 165.563C55.3046 165.705 55.1149 165.919 54.9939 166.204C54.8836 166.463 54.8662 166.705 54.9416 166.93C55.0171 167.154 55.1511 167.368 55.3438 167.571C55.5365 167.773 55.7536 167.971 55.9952 168.165L56.8374 168.849C57.3716 169.285 57.7472 169.741 57.964 170.219C58.1808 170.696 58.1773 171.198 57.9536 171.725C57.7677 172.163 57.4876 172.494 57.1133 172.719C56.7354 172.945 56.3077 173.063 55.8302 173.072C55.349 173.083 54.8598 172.982 54.3625 172.77C53.8603 172.555 53.4521 172.274 53.1382 171.927C52.8232 171.581 52.6175 171.205 52.521 170.797C52.422 170.388 52.4499 169.983 52.6048 169.584L53.5181 169.974Z" fill="white"/>
<path d="M44.871 166.898L44.3846 167.669L39.0149 164.264L39.5013 163.492L41.7526 164.92L45.7938 158.511L46.6608 159.061L42.6196 165.47L44.871 166.898Z" fill="white"/>
<path d="M29.7859 156.935L35.4033 150.576L36.1711 151.258L30.5538 157.618L29.7859 156.935Z" fill="white"/>
<path d="M22.511 149.709L21.7366 148.758L25.3627 142.061L25.2999 141.984L18.0324 144.208L17.2581 143.257L23.8198 137.883L24.4267 138.629L19.4414 142.711L19.4937 142.776L26.1533 140.75L26.7392 141.47L23.4281 147.609L23.4804 147.673L28.4658 143.59L29.0727 144.336L22.511 149.709Z" fill="white"/>
<path d="M11.7229 134.487L19.0591 130.239L19.572 131.13L12.2358 135.378L11.7229 134.487Z" fill="white"/>
<path d="M4.43907 118.276L12.3596 115.263L12.7117 116.194L8.12965 122.888L8.15898 122.966L14.3779 120.6L14.7416 121.562L6.82105 124.575L6.46903 123.644L11.0606 116.928L11.0313 116.851L4.79695 119.222L4.43907 118.276Z" fill="white"/>
<path d="M1.67648 107.457L9.97634 105.757L10.1815 106.765L1.88167 108.465L1.67648 107.457Z" fill="white"/>
<path d="M8.58876 95.3575L8.63206 96.4353L0.0426369 93.6602L0 92.5991L8.33894 89.1399L8.38224 90.2176L1.35905 93.0424L1.36171 93.1087L8.58876 95.3575ZM5.26645 95.0932L5.09191 90.7492L6.00114 90.7124L6.17569 95.0565L5.26645 95.0932Z" fill="white"/>
<path d="M8.81439 81.9405L0.4051 80.9164L0.528745 79.8951L8.03469 80.8091L8.50933 76.8886L9.41267 76.9986L8.81439 81.9405Z" fill="white"/>
<path d="M20.4984 39.8619L21.2473 40.3803L19.142 43.4394L18.3931 42.921L20.4984 39.8619Z" fill="white"/>
<path d="M45.5675 12.6444L45.1446 11.8363L50.7702 8.87504L51.1931 9.68316L48.8344 10.9247L52.3483 17.6395L51.44 18.1176L47.9262 11.4028L45.5675 12.6444Z" fill="white"/>
<path d="M61.3503 13.6013L58.6678 5.54242L61.3828 4.63334C62.0106 4.42315 62.5616 4.35818 63.036 4.43842C63.5096 4.51603 63.9051 4.70869 64.2227 5.0164C64.5402 5.3241 64.778 5.71536 64.9361 6.19018C65.0941 6.66501 65.1375 7.11845 65.0662 7.55053C64.9949 7.9826 64.7941 8.37057 64.4637 8.71443C64.1325 9.05567 63.6557 9.33051 63.0332 9.53895L60.8361 10.2746L60.5427 9.39318L62.7084 8.66802C63.1373 8.52439 63.4616 8.34583 63.6813 8.13233C63.9035 7.91795 64.0351 7.67564 64.076 7.40537C64.1186 7.13161 64.0862 6.83339 63.9788 6.51073C63.8714 6.18806 63.7173 5.92619 63.5167 5.72513C63.316 5.52407 63.0618 5.40219 62.7539 5.35948C62.4452 5.31414 62.0738 5.36417 61.6396 5.50955L59.929 6.08232L62.3233 13.2755L61.3503 13.6013ZM63.9275 8.71468L67.1099 11.6728L65.9799 12.0511L62.8289 9.08252L63.9275 8.71468Z" fill="white"/>
<path d="M77.9299 0.782977L78.9424 0.617942L79.8421 6.17044C79.935 6.7437 79.8832 7.27751 79.6867 7.77185C79.4925 8.26303 79.1728 8.67798 78.7276 9.01673C78.282 9.35275 77.7312 9.57422 77.0753 9.68113C76.4193 9.78805 75.827 9.75291 75.2982 9.57572C74.769 9.3958 74.3333 9.10395 73.9913 8.70018C73.6516 8.29323 73.4353 7.80312 73.3424 7.22986L72.4427 1.67736L73.4552 1.51232L74.3417 6.98293C74.408 7.3924 74.5569 7.7422 74.7883 8.03231C75.0192 8.31969 75.3155 8.52777 75.6772 8.65654C76.0412 8.78214 76.4559 8.80701 76.9213 8.73115C77.3868 8.65529 77.7723 8.49998 78.0779 8.26525C78.383 8.02778 78.5984 7.7363 78.724 7.3908C78.8519 7.04213 78.8826 6.66305 78.8163 6.25358L77.9299 0.782977Z" fill="white"/>
<path d="M91.5992 2.24018C91.5495 1.8198 91.3483 1.49345 90.9953 1.26114C90.6423 1.02882 90.2094 0.912666 89.6965 0.912666C89.3215 0.912666 88.9933 0.973511 88.7121 1.0952C88.4336 1.21689 88.2157 1.38421 88.0585 1.59717C87.9041 1.81012 87.8269 2.05212 87.8269 2.32315C87.8269 2.54993 87.8807 2.74491 87.9882 2.90809C88.0985 3.06849 88.2392 3.20263 88.4101 3.31049C88.5811 3.41558 88.7603 3.5027 88.9478 3.57184C89.1354 3.63822 89.3077 3.69215 89.4649 3.73363L90.3252 3.96595C90.5458 4.02403 90.7912 4.10423 91.0615 4.20656C91.3345 4.30889 91.595 4.44856 91.8432 4.62556C92.0942 4.79979 92.301 5.02381 92.4637 5.29761C92.6264 5.57141 92.7077 5.90744 92.7077 6.30569C92.7077 6.76479 92.5877 7.17964 92.3478 7.55024C92.1107 7.92084 91.7633 8.21538 91.3055 8.43387C90.8505 8.65235 90.2976 8.7616 89.6469 8.7616C89.0402 8.7616 88.5149 8.66341 88.071 8.46705C87.6298 8.27069 87.2823 7.99689 87.0286 7.64565C86.7777 7.29442 86.6357 6.88648 86.6026 6.42185H87.6615C87.689 6.74267 87.7966 7.00817 87.9841 7.21836C88.1744 7.42578 88.4143 7.58066 88.7038 7.68299C88.9961 7.78255 89.3104 7.83234 89.6469 7.83234C90.0384 7.83234 90.39 7.76873 90.7016 7.64151C91.0132 7.51152 91.26 7.33175 91.442 7.1022C91.624 6.86989 91.715 6.59885 91.715 6.2891C91.715 6.007 91.6364 5.77745 91.4792 5.60045C91.3221 5.42345 91.1152 5.27964 90.8588 5.16901C90.6023 5.05838 90.3252 4.96159 90.0274 4.87862L88.9851 4.57993C88.3233 4.38909 87.7993 4.11668 87.4133 3.76267C87.0272 3.40867 86.8342 2.94542 86.8342 2.37293C86.8342 1.89724 86.9624 1.48239 87.2189 1.12839C87.4781 0.771618 87.8255 0.495052 88.2612 0.298691C88.6997 0.0995636 89.1891 0 89.7296 0C90.2756 0 90.7609 0.0981807 91.1856 0.294542C91.6102 0.488138 91.9466 0.753641 92.1948 1.09105C92.4457 1.42846 92.5781 1.8115 92.5919 2.24018H91.5992Z" fill="white"/>
<path d="M100.719 1.61192L100.865 0.711071L107.136 1.73322L106.99 2.63407L104.361 2.20551L103.148 9.69073L102.136 9.5257L103.348 2.04048L100.719 1.61192Z" fill="white"/>
<path d="M112.996 11.9644L115.678 3.90554L120.528 5.52926L120.24 6.39496L116.363 5.09703L115.457 7.82004L119.082 9.03389L118.794 9.89959L115.169 8.68574L114.257 11.4245L118.196 12.7434L117.908 13.6091L112.996 11.9644Z" fill="white"/>
<path d="M126.859 17.6253L124.545 16.4069L128.481 8.88394L130.899 10.1564C131.626 10.5394 132.17 11.0177 132.53 11.5914C132.891 12.1626 133.063 12.8013 133.046 13.5073C133.029 14.2109 132.818 14.952 132.41 15.7308C132 16.5144 131.508 17.1158 130.933 17.535C130.36 17.9517 129.728 18.1718 129.037 18.1953C128.347 18.2163 127.621 18.0263 126.859 17.6253ZM125.876 16.0769L127.224 16.7863C127.844 17.1128 128.421 17.2633 128.954 17.238C129.487 17.2126 129.97 17.031 130.402 16.6932C130.834 16.3553 131.211 15.8803 131.531 15.2681C131.849 14.6608 132.024 14.0859 132.055 13.5434C132.088 12.9985 131.969 12.505 131.699 12.063C131.431 11.6186 131.003 11.2421 130.417 10.9336L128.967 10.1702L125.876 16.0769Z" fill="white"/>
<path d="M146.25 31.5737L152.36 25.6882L154.411 27.8304C154.82 28.2572 155.083 28.6802 155.202 29.0992C155.322 29.5163 155.324 29.9115 155.207 30.2847C155.093 30.6559 154.886 30.9853 154.588 31.2726C154.325 31.5255 154.064 31.6875 153.803 31.7585C153.544 31.8315 153.292 31.8401 153.047 31.7843C152.805 31.7305 152.576 31.6388 152.36 31.5093L152.3 31.5668C152.468 31.7658 152.583 32.0175 152.645 32.3219C152.707 32.6263 152.688 32.9497 152.587 33.2919C152.487 33.6341 152.275 33.9604 151.953 34.2708C151.647 34.5658 151.305 34.7614 150.926 34.8574C150.548 34.9534 150.143 34.9198 149.711 34.7566C149.28 34.5933 148.833 34.2704 148.371 33.7877L146.25 31.5737ZM147.617 31.6834L149.027 33.1554C149.491 33.6401 149.914 33.8941 150.296 33.9175C150.681 33.9409 151.008 33.8233 151.277 33.5647C151.484 33.3655 151.624 33.1287 151.698 32.8544C151.774 32.5782 151.771 32.2915 151.689 31.9945C151.609 31.6956 151.441 31.4125 151.185 31.1452L149.741 29.6373L147.617 31.6834ZM150.385 29.0166L151.703 30.3928C151.917 30.6162 152.154 30.7756 152.413 30.8708C152.675 30.968 152.936 30.9928 153.196 30.9453C153.458 30.8997 153.697 30.7735 153.912 30.5665C154.18 30.3079 154.318 29.9948 154.325 29.6272C154.335 29.2577 154.145 28.8695 153.755 28.4626L152.414 27.0624L150.385 29.0166Z" fill="white"/>
<path d="M161.367 35.9441L162.034 36.9137L160.115 41.1058L160.171 41.1878L164.76 40.8741L165.427 41.8437L159.59 42.1546L156.717 44.1436L156.134 43.2969L159.007 41.3079L161.367 35.9441Z" fill="white"/>
<path d="M174.188 69.1684L173.902 68.1802C174.169 68.0394 174.388 67.8648 174.561 67.6564C174.734 67.4506 174.863 67.223 174.949 66.9735C175.038 66.7258 175.084 66.4664 175.086 66.1951C175.088 65.9239 175.05 65.6528 174.972 65.3818C174.829 64.8877 174.575 64.4763 174.21 64.1475C173.846 63.8213 173.388 63.6104 172.835 63.5148C172.283 63.4219 171.654 63.4777 170.95 63.6824C170.245 63.8871 169.684 64.1767 169.267 64.5513C168.851 64.9285 168.576 65.3525 168.442 65.8233C168.309 66.2968 168.313 66.7806 168.456 67.2747C168.534 67.5456 168.647 67.7952 168.793 68.0233C168.939 68.2515 169.115 68.4467 169.319 68.6089C169.528 68.773 169.76 68.8957 170.016 68.9768C170.275 69.0598 170.554 69.0897 170.851 69.0666L171.137 70.0548C170.699 70.1012 170.288 70.0739 169.903 69.9727C169.518 69.8716 169.168 69.7083 168.853 69.4831C168.541 69.257 168.272 68.9794 168.048 68.65C167.825 68.3234 167.653 67.9542 167.534 67.5424C167.333 66.8464 167.324 66.1782 167.507 65.5378C167.689 64.8974 168.048 64.331 168.583 63.8386C169.119 63.3462 169.815 62.9754 170.674 62.7261C171.532 62.4768 172.318 62.4167 173.033 62.5459C173.748 62.6752 174.353 62.9615 174.849 63.4049C175.344 63.8483 175.692 64.418 175.893 65.114C176.012 65.5258 176.064 65.9296 176.05 66.3255C176.035 66.7241 175.955 67.1029 175.809 67.4621C175.666 67.8205 175.458 68.1457 175.187 68.4377C174.918 68.7289 174.585 68.9725 174.188 69.1684Z" fill="white"/>
<path d="M169.989 78.3772L178.398 77.3531L178.521 78.3744L171.015 79.2885L171.49 83.209L170.587 83.319L169.989 78.3772Z" fill="white"/>
<path d="M179.175 94.1046L170.71 93.7625L170.752 92.7345L179.216 93.0766L179.175 94.1046Z" fill="white"/>
<path d="M169.647 103.846L177.946 105.546L176.924 110.569L176.032 110.387L176.85 106.371L174.045 105.797L173.281 109.553L172.389 109.37L173.154 105.614L170.333 105.037L169.502 109.118L168.611 108.935L169.647 103.846Z" fill="white"/>
<path d="M172.088 125.438L164.167 122.425L164.519 121.494L172.375 119.531L172.404 119.453L166.185 117.088L166.549 116.126L174.47 119.139L174.118 120.07L166.241 122.043L166.211 122.12L172.446 124.492L172.088 125.438Z" fill="white"/>
<path d="M168.055 131.717L168.843 132.173L165.667 137.692L164.879 137.235L166.211 134.922L159.662 131.13L160.175 130.239L166.723 134.031L168.055 131.717Z" fill="white"/>
<path d="M156.19 147.006C156.546 147.233 156.926 147.283 157.328 147.156C157.731 147.029 158.095 146.766 158.419 146.367C158.656 146.076 158.817 145.783 158.901 145.487C158.983 145.194 158.991 144.919 158.926 144.662C158.859 144.407 158.721 144.194 158.512 144.023C158.337 143.88 158.152 143.798 157.958 143.778C157.765 143.763 157.572 143.787 157.381 143.852C157.191 143.918 157.011 144.002 156.839 144.104C156.669 144.208 156.518 144.308 156.387 144.403L155.663 144.925C155.479 145.06 155.262 145.199 155.012 145.345C154.76 145.492 154.487 145.606 154.194 145.687C153.9 145.772 153.597 145.791 153.282 145.744C152.968 145.697 152.657 145.548 152.349 145.296C151.995 145.006 151.75 144.65 151.616 144.229C151.48 143.811 151.472 143.355 151.593 142.861C151.712 142.369 151.977 141.87 152.388 141.365C152.772 140.894 153.18 140.548 153.613 140.327C154.043 140.108 154.474 140.012 154.906 140.037C155.336 140.064 155.741 140.211 156.121 140.48L155.451 141.302C155.186 141.121 154.913 141.036 154.632 141.049C154.351 141.066 154.08 141.154 153.818 141.314C153.556 141.479 153.319 141.691 153.106 141.953C152.858 142.257 152.685 142.57 152.586 142.893C152.49 143.217 152.473 143.522 152.535 143.809C152.599 144.097 152.751 144.339 152.99 144.535C153.208 144.714 153.435 144.798 153.671 144.788C153.907 144.778 154.149 144.708 154.397 144.579C154.644 144.449 154.894 144.295 155.147 144.116L156.037 143.495C156.603 143.102 157.144 142.867 157.662 142.791C158.179 142.715 158.659 142.858 159.101 143.22C159.469 143.521 159.708 143.883 159.819 144.306C159.931 144.733 159.925 145.178 159.801 145.641C159.677 146.107 159.445 146.551 159.103 146.97C158.758 147.395 158.375 147.71 157.955 147.915C157.536 148.123 157.119 148.216 156.701 148.196C156.282 148.177 155.902 148.038 155.563 147.777L156.19 147.006Z" fill="white"/>
<path d="M121.333 169.376L120.976 168.536L124.386 167.08L124.742 167.919L121.333 169.376Z" fill="white"/>
</svg>
