<svg width="36" height="35" viewBox="0 0 36 35" fill="none" xmlns="http://www.w3.org/2000/svg">
<path d="M18.0651 0.743652C20.382 0.743652 22.5876 1.18921 24.6817 2.08034C26.8204 2.97146 28.6472 4.19676 30.1621 5.75623C31.677 7.3157 32.88 9.1425 33.7712 11.2366C34.7069 13.2862 35.1524 15.4918 35.1079 17.8532C35.1524 20.2147 34.7069 22.4425 33.7712 24.5367C32.88 26.5863 31.677 28.3908 30.1621 29.9503C28.6472 31.5097 26.8204 32.735 24.6817 33.6261C22.5876 34.5173 20.382 34.9628 18.0651 34.9628C15.7036 34.9628 13.4758 34.5173 11.3817 33.6261C9.33208 32.735 7.52755 31.5097 5.96808 29.9503C4.40861 28.3908 3.18332 26.5863 2.29219 24.5367C1.40107 22.4425 0.933228 20.2147 0.888672 17.8532C0.933228 15.4918 1.40107 13.2862 2.29219 11.2366C3.18332 9.1425 4.40861 7.3157 5.96808 5.75623C7.52755 4.19676 9.33208 2.97146 11.3817 2.08034C13.4758 1.18921 15.7036 0.743652 18.0651 0.743652ZM2.96054 18.8558C3.04965 19.3904 3.11648 19.9251 3.16104 20.4598C3.25015 20.9945 3.38382 21.5291 3.56205 22.0638C3.74027 22.5539 3.89622 23.044 4.02989 23.5342C4.20811 23.9797 4.45317 24.4253 4.76506 24.8708H9.91131C9.8222 24.3807 9.71081 23.8906 9.57714 23.4005C9.44347 22.9104 9.33208 22.4203 9.24297 21.9301C9.19841 21.44 9.13157 20.9499 9.04246 20.4598C8.95335 19.9251 8.93107 19.3904 8.97563 18.8558H2.96054ZM8.97563 16.8507C8.93107 16.3161 8.95335 15.8037 9.04246 15.3135C9.13157 14.7789 9.19841 14.2665 9.24297 13.7763C9.28752 13.2862 9.37663 12.7961 9.5103 12.306C9.68853 11.8159 9.8222 11.3258 9.91131 10.8356H4.76506C4.45317 11.2812 4.20811 11.749 4.02989 12.2392C3.89622 12.6847 3.74027 13.1748 3.56205 13.7095C3.38382 14.1996 3.25015 14.712 3.16104 15.2467C3.11648 15.7814 3.04965 16.3161 2.96054 16.8507H8.97563ZM12.05 10.8356C11.9163 11.2812 11.7604 11.7713 11.5822 12.306C11.4485 12.7961 11.3371 13.2862 11.248 13.7763C11.2034 14.2665 11.1366 14.7789 11.0475 15.3135C10.9584 15.8037 10.9361 16.3161 10.9807 16.8507H25.0827C25.0827 16.3161 25.0381 15.8037 24.949 15.3135C24.9045 14.7789 24.8376 14.2665 24.7485 13.7763C24.6594 13.2862 24.5258 12.7961 24.3475 12.306C24.2139 11.7713 24.1025 11.2812 24.0134 10.8356H12.05ZM10.9807 18.8558C10.9361 19.3904 10.9584 19.9251 11.0475 20.4598C11.1366 20.9499 11.2257 21.44 11.3148 21.9301C11.4039 22.4203 11.5153 22.9327 11.649 23.4673C11.7827 23.9574 11.9163 24.4253 12.05 24.8708H24.0134C24.1025 24.4253 24.2139 23.9574 24.3475 23.4673C24.5258 22.9327 24.6594 22.4203 24.7485 21.9301C24.8376 21.44 24.9045 20.9499 24.949 20.4598C25.0381 19.9251 25.0827 19.3904 25.0827 18.8558H10.9807ZM27.0877 18.8558C27.0877 19.3904 27.0432 19.9251 26.9541 20.4598C26.9095 20.9499 26.8427 21.44 26.7536 21.9301C26.709 22.4203 26.6199 22.9104 26.4862 23.4005C26.3526 23.8906 26.2189 24.3807 26.0852 24.8708H31.3651C31.677 24.4253 31.8998 23.9797 32.0335 23.5342C32.2117 23.044 32.3899 22.5539 32.5682 22.0638C32.7464 21.5291 32.8578 20.9945 32.9023 20.4598C32.9914 19.9251 33.0805 19.3904 33.1697 18.8558H27.0877ZM27.1546 16.8507H33.1028C33.1028 16.3161 33.036 15.7814 32.9023 15.2467C32.8132 14.712 32.7018 14.1996 32.5682 13.7095C32.4345 13.1748 32.2563 12.6847 32.0335 12.2392C31.8553 11.749 31.6547 11.2812 31.432 10.8356H26.0852C26.2634 11.3258 26.3971 11.8159 26.4862 12.306C26.5753 12.7961 26.6645 13.2862 26.7536 13.7763C26.8872 14.2665 26.9541 14.7789 26.9541 15.3135C26.9986 15.8037 27.0655 16.3161 27.1546 16.8507ZM30.0953 8.76377H30.1621C29.6274 8.13999 29.0705 7.56076 28.4913 7.02608C27.9566 6.44685 27.3328 5.93445 26.6199 5.48889C25.9516 4.99877 25.2609 4.57549 24.548 4.21904C23.8351 3.86259 23.0554 3.57297 22.2088 3.35019C22.5653 3.79575 22.8772 4.24132 23.1445 4.68688C23.4118 5.08788 23.6792 5.53345 23.9465 6.02357C24.2584 6.46913 24.5035 6.93697 24.6817 7.42709C24.9045 7.87265 25.1495 8.31821 25.4169 8.76377H30.0953ZM19.1344 2.81552H19.2013C19.0676 2.81552 18.9562 2.81552 18.8671 2.81552C18.8226 2.81552 18.7334 2.81552 18.5998 2.81552C18.5107 2.77096 18.4215 2.74868 18.3324 2.74868C18.2879 2.74868 18.1765 2.74868 17.9983 2.74868C17.9537 2.74868 17.8646 2.74868 17.7309 2.74868C17.6418 2.74868 17.5527 2.77096 17.4636 2.81552C17.3745 2.81552 17.2631 2.81552 17.1294 2.81552C17.0403 2.81552 16.9512 2.81552 16.8621 2.81552C16.4165 3.26108 16.0155 3.72892 15.6591 4.21904C15.3026 4.70916 14.9462 5.19928 14.5897 5.68939C14.2333 6.17951 13.9214 6.69191 13.654 7.22658C13.4313 7.7167 13.1639 8.2291 12.852 8.76377H23.2113C22.8994 8.2291 22.6098 7.7167 22.3425 7.22658C22.0752 6.69191 21.7633 6.17951 21.4068 5.68939C21.0504 5.19928 20.6939 4.70916 20.3375 4.21904C20.0256 3.72892 19.6246 3.26108 19.1344 2.81552ZM13.7209 3.41703H13.7877C12.9857 3.63981 12.2282 3.92942 11.5153 4.28587C10.8024 4.64232 10.1118 5.04333 9.44347 5.48889C8.77512 5.93445 8.15134 6.44685 7.57211 7.02608C7.03743 7.56076 6.50276 8.13999 5.96808 8.76377H10.7133C10.847 8.31821 11.0475 7.87265 11.3148 7.42709C11.5822 6.93697 11.8272 6.46913 12.05 6.02357C12.2728 5.578 12.5401 5.13244 12.852 4.68688C13.1639 4.24132 13.4535 3.81803 13.7209 3.41703ZM5.96808 26.9427H6.03492C6.48048 27.5665 6.99288 28.168 7.57211 28.7472C8.19589 29.2819 8.81968 29.772 9.44347 30.2176C10.0673 30.6632 10.7579 31.0642 11.5153 31.4206C12.2728 31.7771 13.0302 32.089 13.7877 32.3563C13.4758 31.9107 13.1639 31.4652 12.852 31.0196C12.5401 30.574 12.2728 30.1285 12.05 29.6829C11.8272 29.2374 11.5822 28.7918 11.3148 28.3462C11.0475 27.8561 10.847 27.3883 10.7133 26.9427H5.96808ZM16.8621 32.891H16.9289C16.9735 32.891 17.0403 32.891 17.1294 32.891C17.2631 32.891 17.3745 32.891 17.4636 32.891C17.5527 32.9355 17.6418 32.9578 17.7309 32.9578C17.8646 32.9578 17.9537 32.9578 17.9983 32.9578C18.1765 32.9578 18.2879 32.9578 18.3324 32.9578C18.4215 32.9578 18.5107 32.9355 18.5998 32.891C18.7334 32.891 18.8226 32.891 18.8671 32.891C18.9562 32.891 19.0676 32.891 19.2013 32.891C19.5577 32.4454 19.9365 31.9776 20.3375 31.4874C20.7385 30.9973 21.0949 30.5072 21.4068 30.0171C21.7187 29.527 22.0306 29.0369 22.3425 28.5467C22.6544 28.0121 22.9217 27.4774 23.1445 26.9427H12.9189C13.1416 27.4774 13.409 28.0121 13.7209 28.5467C14.0328 29.0369 14.3447 29.527 14.6565 30.0171C14.9684 30.5072 15.3026 30.9973 15.6591 31.4874C16.0601 31.9776 16.4611 32.4454 16.8621 32.891ZM22.2088 32.3563H22.2757C23.0331 32.1335 23.7906 31.8439 24.548 31.4874C25.3055 31.131 25.9961 30.73 26.6199 30.2844C27.2882 29.7943 27.912 29.2819 28.4913 28.7472C29.115 28.168 29.6497 27.5665 30.0953 26.9427H25.4169C25.1495 27.3883 24.9045 27.8561 24.6817 28.3462C24.5035 28.7918 24.2584 29.2596 23.9465 29.7498C23.6792 30.1953 23.4118 30.6409 23.1445 31.0864C22.8772 31.4874 22.5653 31.9107 22.2088 32.3563Z" fill="#111111"/>
</svg>
