<svg width="77" height="60" viewBox="0 0 77 60" fill="none" xmlns="http://www.w3.org/2000/svg">
<path d="M1.1292 13.4005C1.1292 9.91245 2.49723 6.94765 5.23329 4.50604C7.96936 1.89003 11.194 0.582031 14.9072 0.582031C16.4707 0.582031 18.1319 0.930832 19.8908 1.62843L19.5976 1.36683L21.3565 2.15163H21.6497C22.236 2.50044 22.92 2.93644 23.7017 3.45964C23.7017 3.63404 23.9949 3.98284 24.5812 4.50604C29.467 8.86605 31.519 15.4061 30.7373 24.1261C29.9556 36.6829 22.5291 48.0189 8.45794 58.1342C7.67621 58.8318 6.79676 59.1806 5.81959 59.1806C4.25613 59.1806 2.98581 58.5702 2.00865 57.3494C0.249752 55.2566 0.542902 53.3382 2.8881 51.5941C14.4186 43.2229 20.6725 34.1541 21.6497 24.3877C19.4999 25.6085 17.2524 26.2189 14.9072 26.2189C11.194 26.2189 7.96936 24.9981 5.23329 22.5565C2.49723 19.9405 1.1292 16.8885 1.1292 13.4005ZM46.5674 13.4005C46.5674 9.91245 47.9354 6.94765 50.6715 4.50604C53.4075 1.89003 56.6322 0.582031 60.3454 0.582031C61.9089 0.582031 63.5701 0.930832 65.3289 1.62843L65.0358 1.36683C65.6221 1.54123 66.2084 1.80283 66.7947 2.15163H67.0878C67.8696 2.50044 68.5536 2.93644 69.1399 3.45964C69.1399 3.63404 69.4331 3.98284 70.0193 4.50604C74.9052 8.86605 76.9572 15.4061 76.1755 24.1261C75.3938 36.6829 67.9673 48.0189 53.8961 58.1342C53.1144 58.8318 52.2349 59.1806 51.2578 59.1806C49.6943 59.1806 48.5217 58.5702 47.74 57.3494C45.7856 55.2566 45.9811 53.3382 48.3263 51.5941C59.8568 43.2229 66.1107 34.1541 67.0878 24.3877C64.9381 25.6085 62.6906 26.2189 60.3454 26.2189C56.6322 26.2189 53.4075 24.9981 50.6715 22.5565C47.9354 19.9405 46.5674 16.8885 46.5674 13.4005Z" fill="white"/>
</svg>
