<svg width="854" height="706" viewBox="0 0 854 706" fill="none" xmlns="http://www.w3.org/2000/svg">
<path d="M427 0L434.314 394.591L601.49 37.089L447.677 400.54L745.809 141.943L457.465 411.411L835.003 296.432L461.985 425.323L853.65 473.843L460.456 439.871L798.525 643.5L453.142 452.539L679.16 776.068L441.308 461.137L516.194 848.625L427 464.178L337.806 848.625L412.692 461.137L174.84 776.068L400.858 452.539L55.4751 643.5L393.544 439.871L0.350098 473.843L392.015 425.323L18.9968 296.432L396.535 411.411L108.191 141.943L406.323 400.54L252.51 37.089L419.686 394.591L427 0Z" fill="#151515" fill-opacity="0.05"/>
</svg>
