<svg width="203" height="53" viewBox="0 0 203 53" fill="none" xmlns="http://www.w3.org/2000/svg">
<g clip-path="url(#clip0_4964_1170)">
<mask id="mask0_4964_1170" style="mask-type:luminance" maskUnits="userSpaceOnUse" x="0" y="1" width="48" height="48">
<path d="M48 1H0V49H48V1Z" fill="white"/>
</mask>
<g mask="url(#mask0_4964_1170)">
<path d="M40.9313 6.90088C43.6193 6.90088 45.7985 9.08328 45.7985 11.7713C45.7985 13.3905 45.1681 14.5169 43.3569 16.4337C41.3377 18.4913 39.2801 21.0353 38.8161 24.0945C38.5985 25.5889 38.7745 26.7473 38.9857 27.7233C39.1969 28.6993 39.9041 29.9889 40.4897 31.7361C42.5857 37.4193 38.2337 43.8097 31.9649 43.7457C26.7841 43.7617 22.7905 39.7009 22.7905 34.7121C22.8033 33.8289 22.8001 33.0033 22.8097 32.9137C22.9377 29.2721 21.6673 26.6193 19.7953 24.8849C15.9681 21.7905 13.7505 21.7905 12.0129 20.9617C4.88011 17.7873 6.89611 7.02568 15.0305 6.90088C19.1585 6.90088 22.2881 10.0785 22.4641 14.3409C22.5057 16.2897 22.5729 17.8225 22.9537 19.3297C24.6529 25.3681 34.7233 26.2097 36.1953 18.6705C36.5313 16.0721 35.9649 13.8225 36.0673 11.9377C36.1185 8.81768 38.2401 6.90088 40.9281 6.90088H40.9313Z" fill="white"/>
<path d="M7.47448 43.7009C10.334 43.7009 12.6521 41.3828 12.6521 38.5233C12.6521 35.6638 10.334 33.3457 7.47448 33.3457C4.61496 33.3457 2.29688 35.6638 2.29688 38.5233C2.29688 41.3828 4.61496 43.7009 7.47448 43.7009Z" fill="white"/>
</g>
</g>
<path d="M58.268 11.72H61.904L73.532 31.376L75.908 35.732L75.836 30.656V11.72H79.292V38H75.728L64.28 18.56L61.58 13.772L61.724 19.532V38H58.268V11.72ZM82.8186 28.028C82.8186 27.404 82.8666 26.792 82.9626 26.192C83.0586 25.568 83.1906 24.968 83.3586 24.392C83.5506 23.816 83.7786 23.264 84.0426 22.736C84.3066 22.208 84.6186 21.716 84.9786 21.26C85.3386 20.804 85.7346 20.384 86.1666 20C86.5986 19.592 87.0666 19.232 87.5706 18.92C88.0986 18.608 88.6506 18.344 89.2266 18.128C89.8266 17.912 90.4506 17.744 91.0986 17.624C91.7706 17.504 92.4666 17.444 93.1866 17.444C94.0026 17.444 94.7586 17.516 95.4546 17.66C96.1746 17.78 96.8466 17.972 97.4706 18.236C98.0946 18.476 98.6586 18.776 99.1626 19.136C99.6666 19.472 100.123 19.868 100.531 20.324C100.939 20.78 101.299 21.272 101.611 21.8C101.923 22.328 102.175 22.892 102.367 23.492C102.583 24.092 102.739 24.728 102.835 25.4C102.955 26.072 103.015 26.756 103.015 27.452C103.015 27.596 103.015 27.752 103.015 27.92C103.015 28.064 103.003 28.22 102.979 28.388H86.2386C86.2866 30.452 86.8866 32.12 88.0386 33.392C89.2146 34.664 90.9186 35.3 93.1506 35.3C94.9026 35.3 96.2826 34.916 97.2906 34.148C98.3226 33.38 99.0666 32.336 99.5226 31.016L102.727 32.204C102.079 33.98 100.975 35.456 99.4146 36.632C97.8546 37.784 95.8026 38.36 93.2586 38.36C92.3706 38.36 91.5426 38.288 90.7746 38.144C90.0066 38.024 89.2986 37.832 88.6506 37.568C88.0026 37.304 87.4026 36.992 86.8506 36.632C86.2986 36.272 85.8066 35.864 85.3746 35.408C84.9666 34.928 84.5946 34.412 84.2586 33.86C83.9466 33.308 83.6826 32.72 83.4666 32.096C83.2506 31.472 83.0826 30.824 82.9626 30.152C82.8666 29.456 82.8186 28.748 82.8186 28.028ZM93.1866 20.504C91.0746 20.504 89.4186 21.14 88.2186 22.412C87.0426 23.66 86.3826 25.256 86.2386 27.2H99.5946C99.5706 25.208 99.0306 23.6 97.9746 22.376C96.9186 21.128 95.3226 20.504 93.1866 20.504ZM116.003 38.36C115.163 38.36 114.371 38.288 113.627 38.144C112.883 38 112.187 37.808 111.539 37.568C110.891 37.304 110.291 36.98 109.739 36.596C109.211 36.212 108.731 35.792 108.299 35.336C107.867 34.856 107.483 34.34 107.147 33.788C106.811 33.236 106.523 32.648 106.283 32.024C106.067 31.376 105.899 30.716 105.779 30.044C105.683 29.348 105.635 28.64 105.635 27.92C105.635 27.272 105.683 26.648 105.779 26.048C105.875 25.448 106.007 24.86 106.175 24.284C106.367 23.708 106.595 23.168 106.859 22.664C107.123 22.136 107.435 21.644 107.795 21.188C108.155 20.732 108.551 20.312 108.983 19.928C109.415 19.544 109.883 19.196 110.387 18.884C110.915 18.572 111.467 18.308 112.043 18.092C112.643 17.876 113.267 17.72 113.915 17.624C114.587 17.504 115.283 17.444 116.003 17.444C116.747 17.444 117.443 17.504 118.091 17.624C118.763 17.72 119.387 17.876 119.963 18.092C120.539 18.308 121.079 18.572 121.583 18.884C122.111 19.172 122.591 19.508 123.023 19.892C123.455 20.276 123.839 20.696 124.175 21.152C124.535 21.608 124.847 22.1 125.111 22.628C125.375 23.132 125.591 23.672 125.759 24.248C125.951 24.824 126.095 25.424 126.191 26.048C126.287 26.648 126.335 27.272 126.335 27.92C126.335 28.568 126.287 29.192 126.191 29.792C126.119 30.392 125.987 30.98 125.795 31.556C125.627 32.108 125.411 32.648 125.147 33.176C124.883 33.68 124.571 34.16 124.211 34.616C123.875 35.072 123.491 35.492 123.059 35.876C122.627 36.26 122.159 36.608 121.655 36.92C121.151 37.232 120.599 37.496 119.999 37.712C119.423 37.928 118.799 38.084 118.127 38.18C117.455 38.3 116.747 38.36 116.003 38.36ZM116.003 35.264C118.307 35.264 120.023 34.568 121.151 33.176C122.303 31.784 122.879 30.032 122.879 27.92C122.879 25.76 122.291 23.984 121.115 22.592C119.939 21.2 118.235 20.504 116.003 20.504C115.355 20.504 114.755 20.564 114.203 20.684C113.651 20.804 113.135 20.984 112.655 21.224C112.199 21.464 111.779 21.752 111.395 22.088C111.035 22.424 110.711 22.808 110.423 23.24C110.135 23.648 109.895 24.104 109.703 24.608C109.511 25.088 109.367 25.616 109.271 26.192C109.175 26.744 109.127 27.32 109.127 27.92C109.127 30.08 109.703 31.844 110.855 33.212C112.007 34.58 113.723 35.264 116.003 35.264ZM131.311 38V20.864H127.063V17.84H131.311V16.472C131.311 13.976 131.803 12.236 132.787 11.252C133.771 10.268 135.415 9.776 137.719 9.776H140.167V12.764H137.755C136.555 12.764 135.739 13.016 135.307 13.52C134.875 14.024 134.659 14.96 134.659 16.328V17.84H140.203V20.864H134.659V38H131.311ZM151.441 38.36C150.601 38.36 149.809 38.288 149.064 38.144C148.321 38 147.625 37.808 146.977 37.568C146.329 37.304 145.729 36.98 145.177 36.596C144.649 36.212 144.169 35.792 143.737 35.336C143.305 34.856 142.921 34.34 142.585 33.788C142.249 33.236 141.961 32.648 141.721 32.024C141.505 31.376 141.337 30.716 141.217 30.044C141.121 29.348 141.073 28.64 141.073 27.92C141.073 27.272 141.121 26.648 141.217 26.048C141.313 25.448 141.445 24.86 141.613 24.284C141.805 23.708 142.033 23.168 142.297 22.664C142.561 22.136 142.873 21.644 143.233 21.188C143.593 20.732 143.989 20.312 144.421 19.928C144.853 19.544 145.321 19.196 145.825 18.884C146.353 18.572 146.905 18.308 147.481 18.092C148.081 17.876 148.705 17.72 149.353 17.624C150.025 17.504 150.721 17.444 151.441 17.444C152.185 17.444 152.881 17.504 153.529 17.624C154.201 17.72 154.825 17.876 155.401 18.092C155.977 18.308 156.517 18.572 157.021 18.884C157.549 19.172 158.029 19.508 158.461 19.892C158.893 20.276 159.277 20.696 159.613 21.152C159.973 21.608 160.285 22.1 160.549 22.628C160.813 23.132 161.029 23.672 161.197 24.248C161.389 24.824 161.533 25.424 161.629 26.048C161.725 26.648 161.773 27.272 161.773 27.92C161.773 28.568 161.725 29.192 161.629 29.792C161.557 30.392 161.425 30.98 161.233 31.556C161.065 32.108 160.849 32.648 160.585 33.176C160.321 33.68 160.009 34.16 159.648 34.616C159.312 35.072 158.929 35.492 158.497 35.876C158.065 36.26 157.597 36.608 157.093 36.92C156.589 37.232 156.037 37.496 155.437 37.712C154.861 37.928 154.237 38.084 153.565 38.18C152.893 38.3 152.185 38.36 151.441 38.36ZM151.441 35.264C153.745 35.264 155.461 34.568 156.589 33.176C157.741 31.784 158.316 30.032 158.316 27.92C158.316 25.76 157.729 23.984 156.553 22.592C155.377 21.2 153.673 20.504 151.441 20.504C150.793 20.504 150.193 20.564 149.641 20.684C149.089 20.804 148.573 20.984 148.093 21.224C147.637 21.464 147.217 21.752 146.833 22.088C146.473 22.424 146.149 22.808 145.861 23.24C145.573 23.648 145.333 24.104 145.141 24.608C144.949 25.088 144.805 25.616 144.709 26.192C144.613 26.744 144.564 27.32 144.564 27.92C144.564 30.08 145.141 31.844 146.293 33.212C147.445 34.58 149.161 35.264 151.441 35.264ZM168.738 9.776V38H165.282V9.776H168.738ZM177.694 14.852V15.86H172.042V14.852H177.694ZM176.614 17.84V38H173.122V17.84H176.614ZM190.429 38.36C189.589 38.36 188.797 38.288 188.053 38.144C187.309 38 186.613 37.808 185.965 37.568C185.317 37.304 184.717 36.98 184.165 36.596C183.637 36.212 183.157 35.792 182.725 35.336C182.293 34.856 181.909 34.34 181.573 33.788C181.237 33.236 180.949 32.648 180.709 32.024C180.493 31.376 180.325 30.716 180.205 30.044C180.109 29.348 180.061 28.64 180.061 27.92C180.061 27.272 180.109 26.648 180.205 26.048C180.301 25.448 180.433 24.86 180.601 24.284C180.793 23.708 181.021 23.168 181.285 22.664C181.549 22.136 181.861 21.644 182.221 21.188C182.581 20.732 182.977 20.312 183.409 19.928C183.841 19.544 184.309 19.196 184.813 18.884C185.341 18.572 185.893 18.308 186.469 18.092C187.069 17.876 187.693 17.72 188.341 17.624C189.013 17.504 189.709 17.444 190.429 17.444C191.173 17.444 191.869 17.504 192.517 17.624C193.189 17.72 193.813 17.876 194.389 18.092C194.965 18.308 195.505 18.572 196.009 18.884C196.537 19.172 197.017 19.508 197.449 19.892C197.881 20.276 198.265 20.696 198.601 21.152C198.961 21.608 199.273 22.1 199.537 22.628C199.801 23.132 200.017 23.672 200.185 24.248C200.377 24.824 200.521 25.424 200.617 26.048C200.713 26.648 200.761 27.272 200.761 27.92C200.761 28.568 200.713 29.192 200.617 29.792C200.545 30.392 200.413 30.98 200.221 31.556C200.053 32.108 199.837 32.648 199.573 33.176C199.309 33.68 198.997 34.16 198.637 34.616C198.301 35.072 197.917 35.492 197.485 35.876C197.053 36.26 196.585 36.608 196.081 36.92C195.577 37.232 195.025 37.496 194.425 37.712C193.849 37.928 193.225 38.084 192.553 38.18C191.881 38.3 191.173 38.36 190.429 38.36ZM190.429 35.264C192.733 35.264 194.449 34.568 195.577 33.176C196.729 31.784 197.305 30.032 197.305 27.92C197.305 25.76 196.717 23.984 195.541 22.592C194.365 21.2 192.661 20.504 190.429 20.504C189.781 20.504 189.181 20.564 188.629 20.684C188.077 20.804 187.561 20.984 187.081 21.224C186.625 21.464 186.205 21.752 185.821 22.088C185.461 22.424 185.137 22.808 184.849 23.24C184.561 23.648 184.321 24.104 184.129 24.608C183.937 25.088 183.793 25.616 183.697 26.192C183.601 26.744 183.553 27.32 183.553 27.92C183.553 30.08 184.129 31.844 185.281 33.212C186.433 34.58 188.149 35.264 190.429 35.264Z" fill="white"/>
<defs>
<clipPath id="clip0_4964_1170">
<rect width="48" height="48" fill="white" transform="translate(0 1)"/>
</clipPath>
</defs>
</svg>
