<svg width="127" height="39" viewBox="0 0 127 39" fill="none" xmlns="http://www.w3.org/2000/svg">
<path d="M19.5 2C17.2019 2 14.9262 2.4527 12.803 3.3321C10.6798 4.2116 8.7507 5.5006 7.1256 7.1256C5.5006 8.7507 4.2116 10.6798 3.3321 12.803C2.4527 14.9262 2 17.2019 2 19.5C2 21.7981 2.4527 24.0738 3.3321 26.197C4.2116 28.3202 5.5006 30.2493 7.1256 31.8744C8.7507 33.4994 10.6798 34.7884 12.803 35.6679C14.9262 36.5473 17.2019 37 19.5 37V28.25C18.3509 28.25 17.2131 28.0237 16.1515 27.5839C15.0899 27.1442 14.1253 26.4997 13.3128 25.6872C12.5003 24.8747 11.8558 23.9101 11.4161 22.8485C10.9763 21.7869 10.75 20.6491 10.75 19.5C10.75 18.3509 10.9763 17.2131 11.4161 16.1515C11.8558 15.0899 12.5003 14.1253 13.3128 13.3128C14.1253 12.5003 15.0899 11.8558 16.1515 11.4161C17.2131 10.9763 18.3509 10.75 19.5 10.75V2Z" fill="white"/>
<path d="M19.5003 25.3333C22.722 25.3333 25.3336 22.7217 25.3336 19.5C25.3336 16.2783 22.722 13.6667 19.5003 13.6667C16.2786 13.6667 13.667 16.2783 13.667 19.5C13.667 22.7217 16.2786 25.3333 19.5003 25.3333Z" fill="white"/>
<path d="M2 19.5C2 21.7981 2.4527 24.0738 3.3321 26.197C4.2116 28.3202 5.5006 30.2493 7.1256 31.8744C8.7507 33.4994 10.6798 34.7884 12.803 35.6679C14.9262 36.5473 17.2019 37 19.5 37C21.7981 37 24.0738 36.5473 26.197 35.6679C28.3202 34.7884 30.2493 33.4994 31.8744 31.8744C33.4994 30.2493 34.7884 28.3202 35.6679 26.197C36.5473 24.0738 37 21.7981 37 19.5H28.25C28.25 20.6491 28.0237 21.7869 27.5839 22.8485C27.1442 23.9101 26.4997 24.8747 25.6872 25.6872C24.8747 26.4997 23.9101 27.1442 22.8485 27.5839C21.7869 28.0237 20.6491 28.25 19.5 28.25C18.3509 28.25 17.2131 28.0237 16.1515 27.5839C15.0899 27.1442 14.1253 26.4997 13.3128 25.6872C12.5003 24.8747 11.8558 23.9101 11.4161 22.8485C10.9763 21.7869 10.75 20.6491 10.75 19.5H2Z" fill="white"/>
<path d="M25.3337 19.5C25.3337 17.9529 24.7191 16.4692 23.6252 15.3752C22.5312 14.2812 21.0475 13.6666 19.5004 13.6666C17.9533 13.6666 16.4696 14.2812 15.3756 15.3752C14.2816 16.4692 13.667 17.9529 13.667 19.5H19.5004H25.3337Z" fill="white"/>
<path d="M46.1393 12.925H43.9658V25H46.1393V12.925Z" fill="white"/>
<path d="M47.5586 20.722C47.5586 23.5165 49.4906 25.2415 52.0436 25.2415C54.5966 25.2415 56.5286 23.5165 56.5286 20.722C56.5286 17.9275 54.5966 16.2025 52.0436 16.2025C49.4906 16.2025 47.5586 17.9275 47.5586 20.722ZM49.7321 20.722C49.7321 19.066 50.6981 18.1 52.0436 18.1C53.3891 18.1 54.3551 19.066 54.3551 20.722C54.3551 22.378 53.3891 23.344 52.0436 23.344C50.6981 23.344 49.7321 22.378 49.7321 20.722Z" fill="white"/>
<path d="M64.2962 16.444V17.5997H64.1237C63.6062 16.858 62.7782 16.2025 61.2947 16.2025C59.2592 16.2025 57.4307 17.9275 57.4307 20.584C57.4307 23.2405 59.2592 24.9655 61.2947 24.9655C62.7782 24.9655 63.6062 24.2927 64.0892 23.62H64.2617V24.448C64.2617 26.104 63.2957 26.863 61.8812 26.863C60.4667 26.863 59.7422 26.104 59.4489 25.1207L57.4997 25.966C57.9482 27.2597 59.2592 28.6915 61.9157 28.6915C64.6412 28.6915 66.4352 27.2597 66.4352 24.4997V16.444H64.2962ZM61.9502 23.1025C60.6047 23.1025 59.6042 22.1365 59.6042 20.584C59.6042 19.0315 60.6047 18.0655 61.9502 18.0655C63.2957 18.0655 64.2962 19.0315 64.2962 20.584C64.2962 22.1365 63.2957 23.1025 61.9502 23.1025Z" fill="white"/>
<path d="M67.8408 20.722C67.8408 23.5165 69.7728 25.2415 72.3258 25.2415C74.8788 25.2415 76.8107 23.5165 76.8107 20.722C76.8107 17.9275 74.8788 16.2025 72.3258 16.2025C69.7728 16.2025 67.8408 17.9275 67.8408 20.722ZM70.0143 20.722C70.0143 19.066 70.9803 18.1 72.3258 18.1C73.6713 18.1 74.6373 19.066 74.6373 20.722C74.6373 22.378 73.6713 23.344 72.3258 23.344C70.9803 23.344 70.0143 22.378 70.0143 20.722Z" fill="white"/>
<path d="M78.5166 13.96C78.5166 14.8398 79.1896 15.4435 80.0526 15.4435C80.9146 15.4435 81.5876 14.8398 81.5876 13.96C81.5876 13.0803 80.9146 12.4765 80.0526 12.4765C79.1896 12.4765 78.5166 13.0803 78.5166 13.96ZM81.1386 16.444H78.9656V25H81.1386V16.444Z" fill="white"/>
<path d="M83.0762 28.45H85.2502V23.896H85.4222C85.9052 24.586 86.7332 25.2415 88.2172 25.2415C90.2522 25.2415 92.0812 23.5165 92.0812 20.722C92.0812 17.9275 90.2522 16.2025 88.2172 16.2025C86.7332 16.2025 85.9052 16.858 85.3882 17.5998H85.2152V16.444H83.0762V28.45ZM87.5612 23.3785C86.2162 23.3785 85.2152 22.4125 85.2152 20.722C85.2152 19.0315 86.2162 18.0655 87.5612 18.0655C88.9072 18.0655 89.9072 19.0315 89.9072 20.722C89.9072 22.4125 88.9072 23.3785 87.5612 23.3785Z" fill="white"/>
<path d="M93.3491 18.8418C93.3491 20.5323 94.7631 21.1533 96.5571 21.4983L97.0061 21.5845C98.0751 21.7915 98.5581 22.0503 98.5581 22.6023C98.5581 23.1543 98.0751 23.5855 97.0751 23.5855C96.0741 23.5855 95.2641 23.1715 95.0391 21.9295L93.0381 22.447C93.3321 24.241 94.8321 25.2415 97.0751 25.2415C99.2481 25.2415 100.663 24.2238 100.663 22.4298C100.663 20.6357 99.2141 20.1528 97.2821 19.7733L96.8331 19.687C95.9361 19.5145 95.4531 19.273 95.4531 18.7038C95.4531 18.1863 95.9021 17.8585 96.7301 17.8585C97.5581 17.8585 98.1441 18.2035 98.3511 19.135L100.318 18.5313C99.9041 17.1513 98.6451 16.2025 96.7301 16.2025C94.6941 16.2025 93.3491 17.1513 93.3491 18.8418Z" fill="white"/>
<path d="M110.426 25V16.444H108.253V20.86C108.253 22.447 107.477 23.3785 106.148 23.3785C104.975 23.3785 104.32 22.7403 104.32 21.4465V16.444H102.146V21.55C102.146 23.6718 103.475 25.138 105.476 25.138C107.045 25.138 107.77 24.448 108.115 23.7235H108.287V25H110.426Z" fill="white"/>
<path d="M112.354 16.444V25H114.528V19.894C114.528 18.721 115.08 18.0655 116.08 18.0655C116.943 18.0655 117.46 18.5485 117.46 19.48V25H119.634V19.894C119.634 18.721 120.186 18.0655 121.186 18.0655C122.049 18.0655 122.566 18.5485 122.566 19.48V25H124.74V19.3765C124.74 17.3065 123.463 16.306 121.876 16.306C120.479 16.306 119.841 16.927 119.427 17.6515H119.254C118.857 16.8408 118.15 16.306 116.908 16.306C115.666 16.306 114.993 16.858 114.666 17.5135H114.493V16.444H112.354Z" fill="white"/>
</svg>
