<svg width="130" height="29" viewBox="0 0 130 29" fill="none" xmlns="http://www.w3.org/2000/svg">
<g clip-path="url(#clip0_743_60)">
<path fill-rule="evenodd" clip-rule="evenodd" d="M41.2627 1.93005C41.2627 0.947308 42.0585 0.150635 43.0403 0.150635H46.1369C46.8356 0.150635 47.5128 0.393032 48.0531 0.836563L48.9951 1.60986L49.0187 1.63137C49.0404 1.62403 49.0621 1.61685 49.0839 1.60986C50.7834 1.06495 52.8454 0.96132 54.9499 0.96132C57.0545 0.96132 59.1164 1.06495 60.816 1.60986C60.8378 1.61685 60.8595 1.62403 60.8812 1.63137L60.9048 1.60986L61.8468 0.836563C62.3871 0.393032 63.0643 0.150635 63.763 0.150635H66.8596C67.8414 0.150635 68.6372 0.947308 68.6372 1.93005V3.03005C68.6372 3.88113 68.2791 4.69284 67.6506 5.26605L66.8907 5.95922C66.5197 6.29761 66.0744 6.54388 65.5907 6.67815L65.411 6.72805C66.1151 8.41001 66.5042 10.2079 66.5042 11.6623C66.5042 17.5128 62.888 20.0395 59.7017 22.2659C57.1925 24.0191 54.9499 25.5861 54.9499 28.4433C54.9499 25.5861 52.7074 24.0191 50.1982 22.2659C47.0119 20.0395 43.3957 17.5128 43.3957 11.6623C43.3957 10.2079 43.7848 8.41001 44.4889 6.72805L44.3092 6.67815C43.8255 6.54388 43.3802 6.29761 43.0092 5.95922L42.2493 5.26605C41.6208 4.69284 41.2627 3.88113 41.2627 3.03005V1.93005ZM57.2608 16.4453C57.2608 16.7248 57.139 16.9928 56.9224 17.1905C56.7057 17.3881 56.4118 17.4992 56.1053 17.4992C55.8408 17.4992 55.5856 17.4163 55.3813 17.2665C55.729 18.1981 56.6186 19.0807 57.9718 17.6613C59.1664 16.3424 57.9187 13.5605 56.7031 11.9098C56.298 11.3596 55.6328 11.0948 54.9499 11.0948C54.2671 11.0948 53.6019 11.3596 53.1968 11.9098C51.9812 13.5605 50.7335 16.3424 51.9281 17.6613C53.2813 19.0807 54.1709 18.1981 54.5186 17.2665C54.3143 17.4163 54.0591 17.4992 53.7946 17.4992C53.4881 17.4992 53.1942 17.3881 52.9775 17.1905C52.7608 16.9928 52.6391 16.7248 52.6391 16.4453H57.2608ZM50.5253 8.21061H47.3064L49.8432 10.2439C50.4014 10.6913 51.2173 10.5483 51.5627 9.94248C51.9989 9.17759 51.4196 8.21061 50.5253 8.21061ZM59.3746 8.21061H62.5935L60.0567 10.2439C59.4985 10.6913 58.6826 10.5483 58.3371 9.94248C57.901 9.17759 58.4803 8.21061 59.3746 8.21061Z" fill="white"/>
<path d="M72.4717 20.1912H75.3233V9.30564H72.4717V20.1912ZM72.4717 7.60807H75.3233V5.01929H72.4717V7.60807Z" fill="white"/>
<path d="M77.1602 23.7561H80.0118V18.9605H80.0537C80.6618 19.8942 81.6472 20.5095 83.1569 20.5095C85.9247 20.5095 87.8118 18.2815 87.8118 14.759C87.8118 11.3639 85.9876 9.00854 83.136 9.00854C81.6682 9.00854 80.6618 9.70879 79.9698 10.6637H79.9069V9.30562H77.1602V23.7561ZM82.5489 18.1117C80.8505 18.1117 79.9489 16.8173 79.9489 14.8439C79.9489 12.8917 80.6618 11.3427 82.444 11.3427C84.2053 11.3427 84.9182 12.7856 84.9182 14.8439C84.9182 16.9022 83.9956 18.1117 82.5489 18.1117Z" fill="white"/>
<path d="M93.501 20.5095C96.1849 20.5095 98.03 19.1939 98.03 17.0083C98.03 14.462 96.0381 13.9527 94.2349 13.5707C92.7042 13.2524 91.2784 13.1676 91.2784 12.2339C91.2784 11.4488 92.0123 11.0244 93.1236 11.0244C94.3397 11.0244 95.0736 11.4488 95.1994 12.6159H97.7784C97.5687 10.4303 95.9962 9.00854 93.1655 9.00854C90.7123 9.00854 88.7833 10.1332 88.7833 12.4885C88.7833 14.8651 90.6704 15.3956 92.5994 15.7776C94.0671 16.0746 95.43 16.1807 95.43 17.2205C95.43 17.9844 94.7171 18.4724 93.4591 18.4724C92.18 18.4724 91.2994 17.9207 91.1107 16.6688H88.4688C88.6365 18.9817 90.3768 20.5095 93.501 20.5095Z" fill="white"/>
<path d="M108.857 20.1913V9.30566H106.005V15.5866C106.005 17.0296 105.187 18.0481 103.845 18.0481C102.629 18.0481 102.063 17.3479 102.063 16.0747V9.30566H99.2324V16.5627C99.2324 18.9393 100.574 20.4883 102.965 20.4883C104.474 20.4883 105.313 19.9154 106.047 18.9181H106.11V20.1913H108.857Z" fill="white"/>
<path d="M110.701 20.1912H113.553V13.8678C113.553 12.4249 114.329 11.4912 115.482 11.4912C116.53 11.4912 117.138 12.1278 117.138 13.3585V20.1912H119.99V13.8678C119.99 12.4249 120.724 11.4912 121.919 11.4912C122.967 11.4912 123.575 12.1278 123.575 13.3585V20.1912H126.427V12.8705C126.427 10.4939 125.148 9.00854 122.883 9.00854C121.521 9.00854 120.388 9.73001 119.654 10.9183H119.612C119.088 9.77245 117.998 9.00854 116.635 9.00854C115.146 9.00854 114.098 9.77245 113.511 10.7698H113.448V9.30562H110.701V20.1912Z" fill="white"/>
<path d="M0.478516 20.1912H3.33013V5.01929H0.478516V20.1912Z" fill="white"/>
<path d="M10.302 20.5095C13.6359 20.5095 15.9214 18.0056 15.9214 14.759C15.9214 11.5124 13.6359 9.00854 10.302 9.00854C6.9681 9.00854 4.68262 11.5124 4.68262 14.759C4.68262 18.0056 6.9681 20.5095 10.302 20.5095ZM10.302 18.3027C8.54072 18.3027 7.5762 16.881 7.5762 14.759C7.5762 12.6371 8.54072 11.1942 10.302 11.1942C12.0423 11.1942 13.0278 12.6371 13.0278 14.759C13.0278 16.881 12.0423 18.3027 10.302 18.3027Z" fill="white"/>
<path d="M21.9856 23.9046C23.5791 23.9046 24.963 23.5227 25.8646 22.6739C26.6614 21.9312 27.1436 20.8915 27.1436 19.3637V9.30562H24.3969V10.4515H24.3549C23.7049 9.53903 22.7194 9.00854 21.3775 9.00854C18.6517 9.00854 16.7227 11.0881 16.7227 14.3346C16.7227 17.6237 19.071 19.5334 21.4614 19.5334C22.8243 19.5334 23.642 18.9817 24.271 18.2603H24.3339V19.4485C24.3339 20.9339 23.5581 21.719 21.9436 21.719C20.6227 21.719 20.0146 21.1885 19.7839 20.5095H16.9533C17.2468 22.6315 19.0501 23.9046 21.9856 23.9046ZM21.9436 17.2205C20.4759 17.2205 19.5114 16.1383 19.5114 14.2922C19.5114 12.4673 20.4759 11.3215 21.9227 11.3215C23.642 11.3215 24.4807 12.6795 24.4807 14.271C24.4807 15.8837 23.7468 17.2205 21.9436 17.2205Z" fill="white"/>
<path d="M34.0754 20.5095C37.4093 20.5095 39.6948 18.0056 39.6948 14.759C39.6948 11.5124 37.4093 9.00854 34.0754 9.00854C30.7415 9.00854 28.4561 11.5124 28.4561 14.759C28.4561 18.0056 30.7415 20.5095 34.0754 20.5095ZM34.0754 18.3027C32.3141 18.3027 31.3496 16.881 31.3496 14.759C31.3496 12.6371 32.3141 11.1942 34.0754 11.1942C35.8157 11.1942 36.8012 12.6371 36.8012 14.759C36.8012 16.881 35.8157 18.3027 34.0754 18.3027Z" fill="white"/>
<path d="M126.299 6.92907C126.299 6.44076 126.69 6.04492 127.172 6.04492H128.92C129.402 6.04492 129.793 6.44076 129.793 6.92907C129.793 7.41734 129.402 7.81322 128.92 7.81322H127.172C126.69 7.81322 126.299 7.41734 126.299 6.92907Z" fill="white"/>
</g>
<defs>
<clipPath id="clip0_743_60">
<rect width="130" height="29" fill="white"/>
</clipPath>
</defs>
</svg>
