<svg width="75" height="37" viewBox="0 0 75 37" fill="none" xmlns="http://www.w3.org/2000/svg">
<path d="M1.93848 21.4139H4.06317V31.4915H1.93848V21.4139Z" fill="white"/>
<path d="M5.29607 28.0386C5.29467 27.3148 5.51528 26.6068 5.92999 26.0043C6.3447 25.4018 6.93487 24.9318 7.62582 24.6538C8.31672 24.3759 9.07737 24.3025 9.81147 24.4429C10.5456 24.5833 11.2201 24.9311 11.7497 25.4425C12.2793 25.9539 12.6402 26.6057 12.7867 27.3155C12.9333 28.0253 12.8588 28.7613 12.5727 29.4302C12.2867 30.099 11.802 30.6708 11.1798 31.0731C10.5578 31.4754 9.82632 31.6901 9.07804 31.6901C8.58034 31.6956 8.08662 31.605 7.62567 31.4235C7.16473 31.242 6.74586 30.9734 6.39363 30.6333C6.0414 30.2932 5.76289 29.8886 5.57442 29.443C5.38596 28.9974 5.29132 28.52 5.29607 28.0386ZM10.7211 28.0386C10.7127 27.7262 10.6093 27.423 10.4238 27.1671C10.2382 26.9111 9.97879 26.7139 9.67789 26.5998C9.37699 26.4858 9.04804 26.4602 8.73222 26.526C8.41632 26.5919 8.12757 26.7465 7.90197 26.9703C7.67644 27.1941 7.52412 27.4773 7.46407 27.7845C7.40403 28.0916 7.43897 28.4091 7.56447 28.6971C7.69002 28.9851 7.90054 29.231 8.16972 29.4039C8.43897 29.5767 8.75487 29.669 9.07804 29.6691C9.29907 29.6751 9.51904 29.6367 9.72402 29.5563C9.92899 29.476 10.1145 29.3554 10.269 29.2022C10.4233 29.0489 10.5432 28.8665 10.621 28.6662C10.6989 28.4659 10.7329 28.2523 10.7211 28.0386Z" fill="white"/>
<path d="M21.4011 24.5859V31.1489C21.4011 33.4714 19.5243 34.4511 17.6263 34.4511C16.9589 34.4991 16.2906 34.3685 15.6947 34.0737C15.0989 33.7788 14.5984 33.3311 14.2481 32.7795L16.0753 31.7587C16.2203 32.0414 16.4497 32.2755 16.7338 32.4306C17.0179 32.5857 17.3436 32.6548 17.6688 32.6287C17.8827 32.6633 18.102 32.6498 18.3098 32.5893C18.5175 32.5288 18.7081 32.423 18.8669 32.2801C19.0256 32.1371 19.1483 31.9607 19.2254 31.7646C19.3026 31.5685 19.3322 31.3579 19.3118 31.1489V30.5118C19.0621 30.8091 18.7433 31.0453 18.3816 31.2012C18.0199 31.3571 17.6252 31.4284 17.2297 31.4093C16.268 31.4093 15.3457 31.0398 14.6656 30.382C13.9856 29.7242 13.6035 28.8319 13.6035 27.9016C13.6035 26.9714 13.9856 26.0792 14.6656 25.4214C15.3457 24.7636 16.268 24.394 17.2297 24.394C17.625 24.3766 18.0191 24.4486 18.3806 24.6044C18.7421 24.7602 19.061 24.9955 19.3118 25.2915V24.6064L21.4011 24.5859ZM19.3118 27.9016C19.326 27.5685 19.2368 27.2388 19.0557 26.955C18.8746 26.6713 18.6099 26.4464 18.2957 26.3093C17.9814 26.1722 17.6319 26.1292 17.2922 26.1858C16.9524 26.2423 16.6379 26.3959 16.3892 26.6267C16.1403 26.8575 15.9686 27.155 15.896 27.481C15.8233 27.807 15.8531 28.1466 15.9816 28.456C16.1101 28.7655 16.3313 29.0307 16.6168 29.2175C16.9023 29.4045 17.2391 29.5045 17.5838 29.5048C17.8088 29.5201 18.0347 29.4898 18.2468 29.4156C18.4589 29.3414 18.6527 29.2251 18.8155 29.074C18.9782 28.923 19.1066 28.7406 19.1921 28.5387C19.2776 28.3368 19.3184 28.1198 19.3118 27.9016Z" fill="white"/>
<path d="M22.6262 28.0386C22.6247 27.3148 22.8454 26.6068 23.2601 26.0043C23.6748 25.4018 24.265 24.9318 24.9559 24.6538C25.6468 24.3759 26.4074 24.3025 27.1415 24.4429C27.8756 24.5833 28.5502 24.9311 29.0798 25.4425C29.6094 25.9539 29.9703 26.6057 30.1168 27.3155C30.2633 28.0253 30.1888 28.7613 29.9028 29.4302C29.6167 30.099 29.132 30.6708 28.51 31.0731C27.8879 31.4754 27.1564 31.6901 26.4081 31.6901C25.9105 31.6956 25.4167 31.605 24.9557 31.4235C24.4948 31.242 24.0759 30.9734 23.7237 30.6333C23.3715 30.2932 23.0929 29.8886 22.9045 29.443C22.716 28.9974 22.6214 28.52 22.6262 28.0386ZM28.0512 28.0386C28.0428 27.7262 27.9394 27.423 27.7538 27.1671C27.5683 26.9111 27.3089 26.7139 27.0079 26.5998C26.7071 26.4858 26.3782 26.4602 26.0623 26.526C25.7464 26.5919 25.4576 26.7465 25.232 26.9703C25.0065 27.1941 24.8542 27.4773 24.7941 27.7845C24.7341 28.0916 24.769 28.4091 24.8945 28.6971C25.0201 28.9851 25.2306 29.231 25.4998 29.4039C25.769 29.5767 26.0849 29.669 26.4081 29.6691C26.628 29.6732 26.8464 29.6334 27.0497 29.5521C27.253 29.4709 27.4368 29.35 27.5897 29.197C27.7425 29.0441 27.8611 28.8622 27.9381 28.6629C28.015 28.4636 28.0487 28.251 28.037 28.0386H28.0512Z" fill="white"/>
<path d="M31.1748 22.7361C31.1748 22.4895 31.2504 22.2484 31.392 22.0434C31.5337 21.8384 31.735 21.6786 31.9705 21.5842C32.2061 21.4898 32.4652 21.4651 32.7152 21.5132C32.9653 21.5613 33.1949 21.6801 33.3752 21.8544C33.5555 22.0288 33.6782 22.251 33.728 22.4928C33.7778 22.7347 33.7522 22.9855 33.6547 23.2133C33.5571 23.4411 33.3919 23.6359 33.1799 23.7728C32.9679 23.9098 32.7188 23.9829 32.4638 23.9829C32.1225 23.9812 31.7957 23.8492 31.5544 23.6158C31.313 23.3824 31.1767 23.0663 31.1748 22.7361ZM31.3943 24.5858H33.519V31.4915H31.3943V24.5858Z" fill="white"/>
<path d="M42.7819 28.0386C42.8076 28.4951 42.7398 28.952 42.5823 29.383C42.4248 29.8141 42.1807 30.2107 41.8641 30.5501C41.5474 30.8895 41.1645 31.1649 40.7374 31.3606C40.3103 31.5563 39.8474 31.6683 39.3753 31.6902C38.979 31.7085 38.5833 31.6427 38.2163 31.4971C37.8492 31.3514 37.5195 31.1297 37.2506 30.8475V34.2729H35.126V24.5858H37.2506V25.2367C37.5195 24.9544 37.8492 24.7327 38.2163 24.5871C38.5833 24.4415 38.979 24.3756 39.3753 24.394C39.8468 24.4159 40.3091 24.5277 40.7357 24.7229C41.1624 24.9182 41.5449 25.1931 41.8614 25.5317C42.178 25.8704 42.4222 26.2661 42.5802 26.6963C42.7382 27.1266 42.8067 27.5827 42.7819 28.0386ZM40.6572 28.0386C40.6488 27.7171 40.5431 27.405 40.3531 27.141C40.1631 26.8771 39.8973 26.6727 39.5886 26.5534C39.2798 26.4341 38.9415 26.405 38.6159 26.4698C38.2902 26.5345 37.9912 26.6902 37.7561 26.9177C37.521 27.1451 37.36 27.4342 37.293 27.7493C37.2261 28.0644 37.2562 28.3915 37.3795 28.6902C37.5029 28.9889 37.7141 29.2461 37.987 29.4298C38.2599 29.6135 38.5826 29.7158 38.915 29.724C39.147 29.7382 39.3794 29.7043 39.5967 29.6245C39.814 29.5446 40.0111 29.4207 40.1748 29.2611C40.3385 29.1014 40.465 28.9097 40.5458 28.6989C40.6265 28.4881 40.6597 28.263 40.6431 28.0386H40.6572Z" fill="white"/>
<path d="M49.3976 29.4225C49.3976 31.0119 47.9812 31.6901 46.423 31.6901C45.8006 31.7434 45.1759 31.6153 44.6294 31.3223C44.083 31.0293 43.6396 30.5847 43.3564 30.0459L45.212 29.0252C45.2873 29.2744 45.4486 29.4911 45.6688 29.6394C45.8892 29.7877 46.1553 29.8587 46.423 29.8404C46.9401 29.8404 47.195 29.6828 47.195 29.4088C47.195 28.6483 43.6539 29.0526 43.6539 26.6685C43.6539 25.1613 44.9712 24.4008 46.4868 24.4008C47.0461 24.3844 47.5997 24.5129 48.0904 24.7731C48.581 25.0333 48.9907 25.4157 49.2772 25.8806L47.4146 26.8261C47.3323 26.6451 47.1975 26.4912 47.0265 26.3829C46.8555 26.2747 46.6558 26.2168 46.4514 26.2163C46.0831 26.2163 45.8565 26.3533 45.8565 26.6068C45.8848 27.3946 49.3976 26.8671 49.3976 29.4225Z" fill="white"/>
<path d="M57.2163 24.5858V31.4915H55.0915V30.8475C54.8444 31.1337 54.5308 31.3591 54.1762 31.5056C53.8218 31.6521 53.4364 31.7153 53.0518 31.6902C51.6354 31.6902 50.3818 30.6968 50.3818 28.8265V24.5858H52.5065V28.5251C52.4878 28.693 52.5081 28.8627 52.5657 29.0221C52.6233 29.1815 52.7168 29.3265 52.8396 29.4465C52.9623 29.5666 53.1112 29.6587 53.2753 29.7161C53.4394 29.7737 53.6147 29.795 53.7884 29.7788C54.5675 29.7788 55.1128 29.3403 55.1128 28.3607V24.5858H57.2163Z" fill="white"/>
<path d="M69.4967 27.2577V31.4915H67.372V27.4358C67.372 26.7508 67.025 26.2986 66.3451 26.2986C65.6652 26.2986 65.2261 26.785 65.2261 27.6002V31.4915H63.1014V27.4358C63.1014 26.7508 62.7614 26.2986 62.0744 26.2986C61.3875 26.2986 60.9626 26.785 60.9626 27.6002V31.4915H58.8379V24.5859H60.9626V25.223C61.1846 24.9416 61.4759 24.7184 61.8098 24.5736C62.1438 24.4288 62.5099 24.3671 62.8748 24.3941C63.2412 24.3768 63.6061 24.4518 63.9337 24.6114C64.2614 24.771 64.5407 25.0101 64.7445 25.3052C64.9815 24.9967 65.2955 24.7512 65.6572 24.5919C66.0188 24.4326 66.4163 24.3645 66.8125 24.3941C68.4273 24.3941 69.4967 25.5313 69.4967 27.2577Z" fill="white"/>
<path d="M71.3101 24.5448C72.1863 24.5448 72.8965 23.8577 72.8965 23.0101C72.8965 22.1626 72.1863 21.4756 71.3101 21.4756C70.434 21.4756 69.7236 22.1626 69.7236 23.0101C69.7236 23.8577 70.434 24.5448 71.3101 24.5448Z" fill="white"/>
<path d="M25.9831 16.1868C30.0862 16.1868 33.4123 12.9692 33.4123 9.00023C33.4123 5.03124 30.0862 1.81372 25.9831 1.81372C21.88 1.81372 18.5537 5.03124 18.5537 9.00023C18.5537 12.9692 21.88 16.1868 25.9831 16.1868Z" fill="white"/>
<path d="M42.5915 16.1868C46.6946 16.1868 50.0207 12.9692 50.0207 9.00023C50.0207 5.03124 46.6946 1.81372 42.5915 1.81372C38.4884 1.81372 35.1621 5.03124 35.1621 9.00023C35.1621 12.9692 38.4884 16.1868 42.5915 16.1868Z" fill="white"/>
<path d="M16.8047 1.81372H1.95312V16.1799H16.8047V1.81372Z" fill="white"/>
</svg>
