<svg width="109" height="24" viewBox="0 0 109 24" fill="none" xmlns="http://www.w3.org/2000/svg">
<g clip-path="url(#clip0_743_124)">
<path fill-rule="evenodd" clip-rule="evenodd" d="M11.5817 2.7402L13.1188 0L17.4764 2.5902L15.94 5.3298C15.6701 5.8104 16.074 6.3948 16.6033 6.2898L19.548 5.7048L20.501 10.791L17.5563 11.3754C12.7929 12.321 9.1563 7.065 11.5817 2.7402Z" fill="white"/>
<path fill-rule="evenodd" clip-rule="evenodd" d="M8.91935 21.2598L7.38227 24L3.02402 21.4104L4.5611 18.6702C4.83097 18.1896 4.42703 17.6052 3.89719 17.7102L0.953021 18.2946L0 13.209L2.94475 12.6246C7.70811 11.679 11.3442 16.935 8.91935 21.2598Z" fill="white"/>
<path fill-rule="evenodd" clip-rule="evenodd" d="M9.05197 2.7402L7.51548 0L3.15723 2.5902L4.6943 5.3298C4.9636 5.8104 4.56024 6.3948 4.03039 6.2898L1.08564 5.7048L0.133789 10.791L3.07796 11.3754C7.8419 12.321 11.4785 7.065 9.05255 2.7402H9.05197Z" fill="white"/>
<path fill-rule="evenodd" clip-rule="evenodd" d="M11.4537 21.2598L12.9896 24L17.3479 21.4104L15.8108 18.6702C15.5415 18.1896 15.9449 17.6052 16.4747 17.7102L19.4189 18.2946L20.3719 13.209L17.4272 12.6246C12.6638 11.679 9.02775 16.935 11.4526 21.2598H11.4537Z" fill="white"/>
<path d="M95.0767 18.0918V12.9918C95.0767 12.285 95.2347 11.6508 95.5506 11.0898C95.8776 10.5174 96.341 10.0686 96.9408 9.74282C97.5406 9.41762 98.2546 9.25502 99.0829 9.25502C99.4694 9.25114 99.8547 9.30202 100.228 9.40622C100.577 9.49622 100.893 9.62522 101.176 9.79322C101.47 9.95042 101.721 10.1412 101.929 10.3656H101.961C102.183 10.138 102.437 9.94517 102.713 9.79322C103.017 9.62114 103.342 9.49102 103.678 9.40622C104.057 9.30277 104.448 9.25192 104.84 9.25502C105.668 9.25502 106.382 9.41702 106.982 9.74282C107.581 10.0686 108.044 10.5168 108.371 11.0898C108.699 11.6508 108.862 12.2844 108.862 12.9918V18.0918H106.311V13.0758C106.311 12.7956 106.24 12.543 106.099 12.3186C105.969 12.0839 105.783 11.887 105.559 11.7462C105.322 11.5982 105.05 11.5223 104.774 11.5272C104.479 11.5272 104.212 11.6004 103.973 11.7462C103.749 11.8868 103.563 12.0838 103.433 12.3186C103.301 12.5475 103.233 12.8096 103.237 13.0758V18.0918H100.702V13.0758C100.702 12.7956 100.631 12.543 100.489 12.3186C100.357 12.0805 100.165 11.883 99.9333 11.7462C99.697 11.5982 99.4248 11.5223 99.1482 11.5272C98.8538 11.5272 98.5869 11.6004 98.3473 11.7462C98.1231 11.8868 97.9374 12.0838 97.8075 12.3186C97.6756 12.5476 97.6076 12.8096 97.6111 13.0758V18.0918H95.0767ZM89.5329 18.294C88.672 18.294 87.9247 18.126 87.2928 17.7888C86.6715 17.4408 86.1918 16.9752 85.8537 16.392C85.5156 15.7974 85.3466 15.1404 85.3466 14.4222V9.45662H87.8816V14.355C87.8816 14.658 87.9521 14.9388 88.0937 15.1968C88.2354 15.4434 88.4266 15.6456 88.6661 15.8028C88.9168 15.9486 89.2006 16.0218 89.5166 16.0218C89.822 16.0218 90.0942 15.9486 90.3343 15.8028C90.585 15.6456 90.7814 15.4434 90.9231 15.1968C91.0647 14.9388 91.1358 14.658 91.1358 14.355V9.45662H93.6702V14.4222C93.6702 15.1404 93.5064 15.7974 93.1794 16.392C92.8524 16.9752 92.3785 17.4414 91.7572 17.7888C91.1463 18.1254 90.4049 18.294 89.5329 18.294ZM77.1821 18.0918V16.0218H81.2215C81.3305 16.0218 81.4284 15.999 81.5158 15.954C81.6027 15.8982 81.6738 15.825 81.728 15.7356C81.7814 15.6472 81.8097 15.5451 81.8097 15.441C81.8097 15.3369 81.7814 15.2349 81.728 15.1464C81.6771 15.0599 81.6036 14.9898 81.5158 14.9442C81.4275 14.8879 81.3254 14.8587 81.2215 14.8602H79.7497C79.2041 14.8602 78.7081 14.7702 78.2616 14.5908C77.8374 14.41 77.4736 14.1058 77.2147 13.7154C76.9641 13.3116 76.8387 12.7896 76.8387 12.15C76.8387 11.6562 76.953 11.2074 77.1821 10.8036C77.4204 10.4011 77.7518 10.0655 78.1468 9.82682C78.5589 9.58059 79.0277 9.45275 79.5043 9.45662H83.5431V11.544H79.8966C79.7518 11.541 79.6113 11.5954 79.5043 11.6958C79.4565 11.7439 79.4188 11.8016 79.3934 11.8652C79.368 11.9289 79.3556 11.9972 79.3568 12.066C79.3568 12.2232 79.4064 12.3576 79.5043 12.4698C79.6113 12.5703 79.7518 12.6246 79.8966 12.6216H81.3357C81.946 12.6216 82.4694 12.717 82.9054 12.9072C83.3525 13.0872 83.6958 13.3788 83.936 13.7832C84.1866 14.187 84.312 14.7084 84.312 15.348C84.312 15.8532 84.1866 16.3134 83.936 16.728C83.6981 17.1413 83.3598 17.4837 82.9544 17.7216C82.5511 17.9688 82.0935 18.0918 81.5811 18.0918H77.1821ZM71.6598 9.25502C72.3686 9.25502 72.9952 9.37262 73.5402 9.60842C74.0755 9.81852 74.5568 10.1525 74.9467 10.5846C75.3441 11.008 75.6506 11.5127 75.8461 12.066C76.053 12.627 76.1568 13.2498 76.1568 13.9344C76.1568 14.787 75.9825 15.5448 75.6333 16.2066C75.3108 16.8409 74.8243 17.371 74.2274 17.7384C73.6276 18.1086 72.9299 18.294 72.1343 18.294C71.7962 18.294 71.4744 18.249 71.169 18.1596C70.8797 18.0721 70.6044 17.9415 70.3518 17.772C70.1136 17.6057 69.9083 17.3944 69.7468 17.1492H69.6972V21.7452H67.1628V13.9338C67.1628 12.9798 67.3482 12.1548 67.7189 11.4594C68.0783 10.7749 68.6238 10.2132 69.2886 9.84302C69.9648 9.45062 70.7552 9.25442 71.6598 9.25442V9.25502ZM71.6598 11.5104C71.2675 11.5104 70.9242 11.6112 70.6298 11.8134C70.346 12.0042 70.128 12.2736 69.9753 12.6216C69.8231 12.9576 69.7468 13.3398 69.7468 13.7658C69.7468 14.1924 69.8231 14.574 69.9753 14.9106C70.128 15.2472 70.346 15.5166 70.6298 15.7188C70.9242 15.9096 71.2675 16.005 71.6598 16.005C72.0521 16.005 72.3902 15.909 72.6734 15.7188C72.9585 15.5152 73.1847 15.2359 73.328 14.9106C73.4912 14.574 73.5728 14.1924 73.5728 13.7658C73.5728 13.3398 73.4912 12.9582 73.328 12.6216C73.1753 12.2736 72.9573 12.0036 72.6734 11.8134C72.3902 11.6112 72.0521 11.5104 71.6598 11.5104ZM63.3111 18.0918V9.45662H65.8624V18.0918H63.3111ZM64.5865 8.48042C64.1831 8.48042 63.8345 8.32922 63.5402 8.02622C63.2458 7.72322 63.0983 7.36382 63.0983 6.94862C63.0983 6.53342 63.2458 6.17462 63.5402 5.87162C63.8345 5.55722 64.1831 5.40002 64.5865 5.40002C64.9898 5.40002 65.339 5.55722 65.6333 5.87162C65.9277 6.17462 66.0746 6.53342 66.0746 6.94862C66.0746 7.36382 65.9277 7.72262 65.6333 8.02622C65.339 8.32922 64.9898 8.48042 64.5865 8.48042ZM57.7667 18.294C56.9057 18.294 56.1317 18.0978 55.4444 17.7048C54.7703 17.3244 54.2061 16.7669 53.8094 16.089C53.4172 15.4044 53.2207 14.6358 53.2207 13.7826C53.2207 12.9186 53.4172 12.15 53.8094 11.4768C54.2061 10.799 54.7703 10.2414 55.4444 9.86102C56.1317 9.45662 56.9057 9.25502 57.7667 9.25502C58.6282 9.25502 59.3964 9.45662 60.0726 9.86102C60.7443 10.2388 61.3038 10.7973 61.6912 11.4768C62.0946 12.15 62.2963 12.9186 62.2963 13.7826C62.2963 14.6358 62.0946 15.4044 61.6912 16.089C61.3038 16.7686 60.7443 17.3271 60.0726 17.7048C59.3859 18.0978 58.6171 18.294 57.7667 18.294ZM57.7667 16.0218C58.17 16.0218 58.5192 15.9204 58.8135 15.7188C59.108 15.5168 59.3449 15.2379 59.5002 14.9106C59.664 14.574 59.7456 14.1924 59.7456 13.7658C59.7456 13.3506 59.664 12.975 59.5002 12.6378C59.3449 12.3107 59.1079 12.032 58.8135 11.8302C58.5192 11.628 58.17 11.5272 57.7667 11.5272C57.3633 11.5272 57.0089 11.628 56.7041 11.8302C56.4095 12.0322 56.1723 12.3111 56.0168 12.6384C55.8503 12.9894 55.7664 13.3758 55.772 13.7664C55.772 14.1924 55.8536 14.574 56.0168 14.9106C56.1724 15.2379 56.4095 15.5168 56.7041 15.7188C57.0089 15.9204 57.3633 16.0218 57.7667 16.0218ZM44.9834 21.5094V19.2702H49.1691C49.3329 19.2702 49.4693 19.2144 49.5783 19.1022C49.6314 19.0539 49.6736 18.9941 49.7018 18.9271C49.73 18.8601 49.7435 18.7876 49.7415 18.7146V16.8126H49.6925C49.4854 17.0605 49.2493 17.281 48.9895 17.469C48.7494 17.649 48.4766 17.7834 48.1717 17.8734C47.8473 17.9673 47.5114 18.0125 47.1744 18.0078C46.433 18.0078 45.7679 17.8278 45.1792 17.469C44.6016 17.0988 44.1434 16.5882 43.8053 15.9372C43.4789 15.2868 43.3151 14.5458 43.3151 13.7154C43.3151 12.8964 43.4842 12.15 43.8222 11.4768C44.1708 10.8036 44.6779 10.2648 45.343 9.86102C46.0075 9.45662 46.82 9.25502 47.7795 9.25502C48.6952 9.25502 49.4856 9.45122 50.1507 9.84422C50.8185 10.2174 51.3645 10.7851 51.7204 11.4762C52.0911 12.1722 52.2764 12.9918 52.2764 13.9344V18.984C52.2764 19.758 52.0532 20.37 51.6061 20.8188C51.1701 21.279 50.5651 21.5088 49.791 21.5088L44.9834 21.5094ZM47.7958 15.8196C48.1881 15.8196 48.5261 15.7296 48.81 15.5502C49.0901 15.363 49.3159 15.1014 49.4634 14.793C49.6185 14.4684 49.6969 14.1107 49.6925 13.749C49.6925 13.3452 49.6167 12.975 49.464 12.6384C49.3113 12.3018 49.0933 12.0378 48.8094 11.847C48.5261 11.6448 48.1881 11.544 47.7952 11.544C47.414 11.544 47.0759 11.6394 46.7816 11.8302C46.4983 12.021 46.2803 12.279 46.1276 12.6042C45.9754 12.93 45.8991 13.2942 45.8991 13.6986C45.8991 14.0916 45.9748 14.4504 46.1276 14.7762C46.2803 15.09 46.4983 15.3426 46.7821 15.5334C47.0759 15.7242 47.414 15.8196 47.7958 15.8196ZM38.163 18.294C37.3021 18.294 36.528 18.0978 35.8413 17.7048C35.1669 17.3246 34.6026 16.767 34.2058 16.089C33.8135 15.4044 33.617 14.6358 33.617 13.7826C33.617 12.9186 33.8135 12.15 34.2058 11.4768C34.6026 10.7988 35.1669 10.2413 35.8413 9.86102C36.528 9.45662 37.3021 9.25502 38.163 9.25502C39.0245 9.25502 39.7927 9.45662 40.4689 9.86102C41.1406 10.2388 41.7001 10.7973 42.0876 11.4768C42.4909 12.15 42.6926 12.9186 42.6926 13.7826C42.6926 14.6358 42.4909 15.4044 42.0876 16.089C41.7001 16.7686 41.1406 17.327 40.4689 17.7048C39.7822 18.0978 39.0134 18.294 38.163 18.294ZM38.163 16.0218C38.5663 16.0218 38.9149 15.9204 39.2098 15.7188C39.5042 15.5167 39.7411 15.2378 39.8965 14.9106C40.0597 14.574 40.1413 14.1924 40.1413 13.7658C40.1413 13.3506 40.0597 12.975 39.8965 12.6378C39.7411 12.3108 39.5041 12.0322 39.2098 11.8302C38.9155 11.628 38.5663 11.5272 38.163 11.5272C37.7596 11.5272 37.4052 11.628 37.1004 11.8302C36.8058 12.0322 36.5686 12.3111 36.4132 12.6384C36.2466 12.9894 36.1628 13.3759 36.1683 13.7664C36.1683 14.1924 36.2499 14.574 36.4132 14.9106C36.5687 15.2379 36.8058 15.5168 37.1004 15.7188C37.4052 15.9204 37.7596 16.0218 38.163 16.0218ZM30.0457 18.0918C29.3369 18.0918 28.7155 17.9298 28.1816 17.604C27.6623 17.2941 27.2332 16.8466 26.9389 16.308C26.6445 15.7692 26.4971 15.174 26.4971 14.5236V6.30902H29.2442V14.7252C29.2442 14.9952 29.3375 15.2304 29.5223 15.4326C29.7076 15.6342 29.9361 15.7356 30.2089 15.7356H33.2341V18.0918H30.0457Z" fill="white"/>
</g>
<defs>
<clipPath id="clip0_743_124">
<rect width="109" height="24" fill="white"/>
</clipPath>
</defs>
</svg>
