<?xml version="1.0" encoding="utf-8"?>
<!-- Generator: Adobe Illustrator 24.2.0, SVG Export Plug-In . SVG Version: 6.00 Build 0)  -->
<svg version="1.1" id="Layer_1" xmlns="http://www.w3.org/2000/svg" xmlns:xlink="http://www.w3.org/1999/xlink" x="0px" y="0px"
	 viewBox="0 0 961.2 475.8" style="enable-background:new 0 0 961.2 475.8;" xml:space="preserve">
<style type="text/css">
	.st0{display:none;fill:#2814ED;stroke:#000000;stroke-miterlimit:10;}
	.st1{clip-path:url(#SVGID_2_);}
	.st2{opacity:0.56;}
	.st3{fill:none;stroke:#FFFFFF;stroke-width:2;stroke-miterlimit:10;}
	.st4{fill:none;stroke:#FFFFFF;stroke-width:1.89;stroke-miterlimit:10;}
	.st5{fill:none;stroke:#FFFFFF;stroke-width:1.78;stroke-miterlimit:10;}
	.st6{fill:none;stroke:#FFFFFF;stroke-width:1.67;stroke-miterlimit:10;}
	.st7{fill:none;stroke:#FFFFFF;stroke-width:1.56;stroke-miterlimit:10;}
	.st8{fill:none;stroke:#FFFFFF;stroke-width:1.45;stroke-miterlimit:10;}
	.st9{fill:none;stroke:#FFFFFF;stroke-width:1.34;stroke-miterlimit:10;}
	.st10{fill:none;stroke:#FFFFFF;stroke-width:1.23;stroke-miterlimit:10;}
	.st11{fill:none;stroke:#FFFFFF;stroke-width:1.13;stroke-miterlimit:10;}
	.st12{fill:none;stroke:#FFFFFF;stroke-width:1.02;stroke-miterlimit:10;}
	.st13{fill:none;stroke:#FFFFFF;stroke-width:0.91;stroke-miterlimit:10;}
	.st14{fill:none;stroke:#FFFFFF;stroke-width:0.8;stroke-miterlimit:10;}
	.st15{fill:none;stroke:#FFFFFF;stroke-width:0.69;stroke-miterlimit:10;}
	.st16{fill:none;stroke:#FFFFFF;stroke-width:0.58;stroke-miterlimit:10;}
	.st17{fill:none;stroke:#FFFFFF;stroke-width:0.47;stroke-miterlimit:10;}
	.st18{fill:none;stroke:#FFFFFF;stroke-width:0.36;stroke-miterlimit:10;}
	.st19{fill:none;stroke:#FFFFFF;stroke-width:0.25;stroke-miterlimit:10;}
</style>
<rect x="-6.1" class="st0" width="972.5" height="475.8"/>
<g>
	<g id="OBJECTS">
		<g>
			<defs>
				<rect id="SVGID_1_" x="0" width="961.2" height="460.4"/>
			</defs>
			<clipPath id="SVGID_2_">
				<use xlink:href="#SVGID_1_"  style="overflow:visible;"/>
			</clipPath>
			<g class="st1">
				<g class="st2">
					<path class="st3" d="M-160,307.5C-112.1,178.3-32.1,99.3,46.2,85.6s154.4,33.1,216.8,112.8c38.3,49,72.1,110.1,112,154.6
						c46.7,52.1,100.4,79.9,155.1,95.6c42.7,12.3,87.2,17.4,130.7-3.7c85.6-41.5,155.4-177.1,238.6-239
						c94.4-70.2,194.9-38.6,289.6-6.1"/>
					<path class="st4" d="M-158.7,312.5c17.3-47.7,38.6-89.3,62.6-124c21.2-30.7,45.4-55.7,69.2-70.3c28.5-17.4,56.2-23.4,84.2-25.2
						c75-4.7,147.4,38,207.9,115.1c37.8,48.2,71.8,106.6,111.6,147.2c39.1,39.8,82.7,61,127.6,74.5c8.7,2.6,17.5,5,26.4,7
						c42.7,9.9,87.1,14,130.7-5.2c38.1-16.7,73.3-49.5,108-85.5c21.1-21.8,42.3-44.6,63.6-67.6c23.4-25.2,46.8-49.8,71.4-68.8
						c92.5-71.2,190.7-50,284.2-20"/>
					<path class="st5" d="M-157.4,317.6c18.2-51.3,40.8-96.3,66.3-133.9c22.8-33.8,49.7-61,75.2-72.7c29.7-13.6,56.3-12.1,84.4-10.6
						c70.9,3.9,140.5,43.1,198.9,117.4C304.9,265.2,339,321,378.8,357.5c39.1,36,82.3,51.9,126.8,62.1c8.7,2,17.4,3.8,26.1,5.4
						c42.6,7.4,87,10.5,130.7-6.7c38.6-15.2,74.4-44.2,109.8-75.9c21.5-19.3,43.4-39.1,65.3-60.9c23.8-23.7,47.3-48.4,72-68.1
						c90.6-72.1,186.4-61.4,278.7-33.9"/>
					<path class="st6" d="M-156,322.7c19.2-54.8,43-103.2,69.9-143.7c24.4-36.9,53.8-66.3,81.3-75.1c30.7-9.8,55.9-1,84.7,4
						c66.2,11.5,133.5,48.1,190,119.6c36.9,46.5,71.3,99.7,110.9,132.3c39.2,32.2,81.8,42.8,126,49.7c8.6,1.4,17.2,2.7,25.8,3.7
						c42.6,4.9,87,7.1,130.8-8.2c39.1-13.6,75.6-39,111.6-66.4c22-16.7,44.6-33.5,67.2-54.1c24.3-22.2,47.8-46.9,72.7-67.4
						c88.7-73.1,182.2-72.8,273.3-47.8"/>
					<path class="st7" d="M-154.7,327.7c20.1-58.4,45.1-110.1,73.5-153.5c26-40,57.8-71.7,87.3-77.5c31.6-6.2,57.6,3.8,84.9,18.6
						c63.5,4.5,126.6,53.1,181.1,121.9c36.4,45.7,71.1,96.2,110.6,124.8c39.3,28.4,81.4,33.6,125.1,37.3c8.5,0.7,17,1.5,25.6,2
						c42.7,2.4,87,3.7,130.8-9.7c39.6-12,76.7-33.8,113.4-56.8c22.5-14.1,45.8-27.9,69-47.4c24.7-20.7,48.4-45.4,73.3-66.7
						c86.8-73.9,177.9-84.3,267.9-61.7"/>
					<path class="st8" d="M-153.3,332.8c21-61.9,47.3-117.1,77.1-163.3c27.7-43.2,61.8-77.2,93.3-79.9c32.4-2.7,58.1,13.4,85.2,33.2
						c59.8,9.1,119.6,58.1,172.2,124.2c36,44.9,70.8,92.7,110.2,117.3s81,24.5,124.3,24.9c8.4,0.1,16.8,0.4,25.3,0.3
						c42.7-0.1,87,0.3,130.8-11.1c40.1-10.5,78-28.5,115.2-47.2c23.1-11.6,47-22.3,70.9-40.6c25.1-19.3,48.9-44,74-66
						c85-74.7,173.7-95.6,262.3-75.6"/>
					<path class="st9" d="M-152,337.9c21.9-65.5,49.4-124,80.7-173.1C-42,118.5-5.7,81.8,28,82.4c33.1,0.6,58.6,23,85.4,47.8
						c56.1,13.6,112.5,63.2,163.2,126.4c35.4,44.2,70.7,89.2,109.9,109.9c39.5,20.8,80.5,15.3,123.5,12.5c8.3-0.5,16.7-0.8,25-1.3
						c42.7-2.6,87-3,130.8-12.6c40.7-8.9,79.2-23.3,117-37.6c23.7-9,48.2-16.7,72.8-33.9c25.5-17.8,49.5-42.5,74.6-65.3
						c83.3-75.5,169.4-107,256.9-89.5"/>
					<path class="st10" d="M-150.7,342.9C-127.8,273.9-99.1,212-66.4,160C-35.4,110.6,3.2,71.2,39,75.3
						c33.8,3.8,59.1,32.7,85.6,62.4c52.5,18.1,105.6,68.2,154.3,128.7c34.9,43.4,70.5,85.7,109.6,102.4c39.6,17,80.1,6.2,122.6,0.1
						c8.2-1.2,16.5-2,24.8-3c42.8-5.2,87-6.4,130.9-14.1c41.2-7.3,80.5-18,118.8-28c24.3-6.4,49.3-11.1,74.6-27.1
						c25.8-16.3,50-41,75.3-64.6c81.5-76.3,165.1-118.5,251.5-103.5"/>
					<path class="st11" d="M-149.3,348c23.8-72.6,53.7-137.9,87.9-192.8c32.5-52.5,73.5-94.7,111.3-87.1c34.7,6.9,59.6,42.3,85.9,77
						c48.8,22.7,98.6,73.2,145.4,131c34.5,42.6,70.4,82.1,109.2,94.9c39.8,13.1,79.7-2.9,121.8-12.3c8.1-1.8,16.3-3.2,24.5-4.7
						c42.8-7.9,87-9.7,130.9-15.6c41.8-5.6,81.8-12.6,120.5-18.4c24.9-3.7,50.5-5.6,76.5-20.4c26.2-14.9,50.6-39.5,75.9-63.9
						c79.8-77,160.9-129.8,246.1-117.3"/>
					<path class="st12" d="M-148,353c24.7-76.2,55.9-144.8,91.5-202.6C-22.3,94.9,21.1,49.8,60.9,60.9c35.5,9.9,60.1,52,86.1,91.6
						c45.1,27.2,91.7,78.2,136.5,133.2c34,41.7,70.3,78.6,108.9,87.5c40,9.2,79.3-12,121-24.6c8-2.4,16.2-4.4,24.3-6.4
						c42.8-10.5,87-13,130.9-17.1c42.3-4,83.2-7.2,122.3-8.8c25.5-1.1,51.6,0,78.3-13.6c26.5-13.5,51.2-37.9,76.6-63.2
						c78.1-77.7,156.7-141.2,240.6-131.2"/>
					<path class="st13" d="M-146.7,358.1c25.6-79.8,58-151.7,95.2-212.4C-15.7,87,30.1,39,71.9,53.8c36.4,12.9,60.6,61.6,86.3,106.2
						c41.4,31.8,84.7,83.2,127.6,135.5c33.5,40.9,70.2,75,108.6,80c40.2,5.3,78.8-21.1,120.2-37c7.9-3,16-5.6,24-8
						c42.9-13.2,87-16.3,130.9-18.6c41.4-2.1,82.8-1.9,124.1,0.7c26.1,1.6,52.7,5.5,80.2-6.9c26.9-12.1,51.8-36.4,77.2-62.5
						c76.4-78.4,152.4-152.7,235.1-145.2"/>
					<path class="st14" d="M-145.3,363.2c26.6-83.3,60.1-158.6,98.8-222.2C-9.2,79.2,39.2,28.1,82.8,46.6
						c37.4,15.9,53.4,76.1,86.6,120.7c31.3,42,77.8,88.2,118.6,137.7c33.1,40.1,70.1,71.3,108.2,72.6c40.5,1.3,78.4-30.2,119.3-49.4
						c7.9-3.7,15.8-6.8,23.7-9.7c42.9-15.9,87-19.5,131-20.1c43.4-0.6,85.8,3.8,125.9,10.3c26.7,4.4,53.8,11,82-0.1
						c27.2-10.7,52.4-34.9,77.9-61.8c74.8-79,148.1-164,229.7-159"/>
					<path class="st15" d="M-144,368.3c27.5-86.9,62.3-165.6,102.4-232c39-64.9,90-119,135.4-96.7c38.4,18.8,54.8,84.5,86.8,135.3
						c28.4,44.9,70.8,93.2,109.7,140c32.6,39.3,70,67.6,107.9,65.1c40.6-2.7,78-39.3,118.5-61.8c7.8-4.3,15.6-8,23.5-11.4
						c42.9-18.6,87-22.7,131-21.6s87.1,9.3,127.7,19.9c27.3,7.1,54.9,16.5,83.9,6.6c27.5-9.3,53-33.3,78.5-61.1
						c73.2-79.6,143.9-175.4,224.3-172.9"/>
					<path class="st16" d="M-142.7,373.3c28.5-90.4,64.5-172.5,106-241.9C4,63.4,57.5,6.3,104.8,32.3c39.5,21.8,56.5,93.2,87,149.9
						c25.9,48.1,64,98.2,100.8,142.3c32.2,38.5,69.9,63.8,107.5,57.6c40.8-6.7,77.6-48.4,117.7-74.2c7.5-4.7,15.2-9.1,23.2-13
						c42.8-21.4,87-25.9,131-23.1c44.5,2.9,88.3,14.9,129.5,29.5c27.9,9.9,56,21.9,85.7,13.4c27.9-8,53.6-31.7,79.2-60.4
						C1038,174.1,1106,67.5,1185.2,67.4"/>
					<path class="st17" d="M-141.3,378.4c29.4-94,66.6-179.5,109.6-251.7C10.6,55.6,66.8-4.7,115.7,25.1
						c40.6,24.7,58.7,101.8,87.3,164.5c23.5,51.5,57.1,103.1,91.8,144.6c31.8,37.6,69.7,60.1,107.2,50.2
						c41-10.8,77.2-57.5,116.9-86.6c7.4-5.4,15-10.3,23-14.7c42.8-24.1,87-29.1,131-24.5c45,4.7,89.5,20.4,131.3,39.1
						c28.4,12.7,57.2,27.4,87.6,20.2c28.2-6.7,54.2-30.2,79.8-59.7c70-80.8,135.4-198.2,213.4-200.8"/>
					<path class="st18" d="M-140,383.5c30.3-97.5,68.8-186.4,113.2-261.5C17.1,47.7,76.1-15.6,126.7,18
						c41.7,27.7,61.1,110.6,87.5,179.1c21.3,55.2,50.1,108.1,82.9,146.8c31.3,36.8,69.5,56.3,106.9,42.7c41-14.9,76.7-66.6,116-99
						c7.2-5.9,14.8-11.4,22.7-16.4c42.7-26.9,87-32.3,131.1-26c45.5,6.5,90.7,26,133,48.7c28.9,15.5,58.3,32.8,89.4,26.9
						c28.6-5.4,54.9-28.6,80.5-59c68.5-81.4,131.1-209.6,208-214.7"/>
					<path class="st19" d="M-138.7,388.5c31.2-101.1,70.9-193.3,116.8-271.3C23.7,39.9,85.4-26.5,137.7,10.8
						c42.9,30.7,63.6,119.4,87.8,193.7c19.2,59,43.2,113.1,74,149.1s69.2,52.5,106.5,35.2c41.1-19,76.3-75.7,115.2-111.4
						c92.9-85.3,196.8-44.2,288.3,12.7c29.4,18.2,59.4,38.1,91.3,33.7c104.6-14.8,179.1-276.5,283.6-286.9"/>
				</g>
			</g>
		</g>
	</g>
</g>
</svg>
