<svg width="49" height="49" viewBox="0 0 49 49" fill="none" xmlns="http://www.w3.org/2000/svg">
<g clip-path="url(#clip0_4076_1242)">
<path fill-rule="evenodd" clip-rule="evenodd" d="M26.0649 2.40002C25.4633 2.09629 24.7319 2.09629 24.1302 2.40002L9.18048 9.9479C7.81441 10.6376 7.81441 12.423 9.18048 13.1126L24.1302 20.6605C24.7319 20.9642 25.4633 20.9642 26.0649 20.6605L41.0147 13.1126C42.3808 12.423 42.3808 10.6376 41.0147 9.9479L26.0649 2.40002ZM22.9694 0.501156C24.2929 -0.167052 25.9022 -0.167053 27.2257 0.501156L42.1754 8.04902C45.1808 9.56635 45.1808 13.4942 42.1755 15.0115L27.2257 22.5594C25.9022 23.2276 24.2929 23.2276 22.9694 22.5594L8.01964 15.0115C5.01435 13.4942 5.01434 9.56635 8.01964 8.04902L22.9694 0.501156ZM5.31408 19.8094C3.9875 19.1712 2.39024 20.0452 2.39024 21.4092V38.0551C2.39024 38.7158 2.78628 39.324 3.42351 39.6419L17.3666 46.5987C18.6941 47.261 20.317 46.3881 20.317 45.012V28.1176C20.317 27.447 19.9093 26.8315 19.2572 26.5177L5.31408 19.8094ZM0 21.4092C0 18.4082 3.51396 16.4855 6.43245 17.8897L20.3755 24.598C21.8101 25.2882 22.7073 26.6424 22.7073 28.1176V45.012C22.7073 48.0396 19.1367 49.9599 16.2163 48.5028L2.27318 41.546C0.871269 40.8466 0 39.5085 0 38.0551V21.4092ZM46.6098 21.4092C46.6098 20.0452 45.0125 19.1712 43.686 19.8094L29.7428 26.5177C29.0907 26.8315 28.683 27.447 28.683 28.1176V45.012C28.683 46.3881 30.3059 47.261 31.6334 46.5987L45.5765 39.6419C46.2137 39.324 46.6098 38.7158 46.6098 38.0551V21.4092ZM42.5675 17.8897C45.486 16.4855 49 18.4082 49 21.4092V38.0551C49 39.5085 48.1287 40.8466 46.7268 41.546L32.7837 48.5028C29.8633 49.9599 26.2927 48.0396 26.2927 45.012V28.1176C26.2927 26.6424 27.1899 25.2882 28.6245 24.598L42.5675 17.8897Z" fill="white"/>
</g>
<defs>
<clipPath id="clip0_4076_1242">
<rect width="49" height="49" fill="white"/>
</clipPath>
</defs>
</svg>
