<svg width="50" height="50" viewBox="0 0 50 50" fill="none" xmlns="http://www.w3.org/2000/svg">
<g clip-path="url(#clip0_4076_1245)">
<path d="M31.707 18.5217C31.707 19.1099 31.239 19.5866 30.6616 19.5866H15.679C15.1018 19.5866 14.6338 19.1099 14.6338 18.5217C14.6338 17.9335 15.1018 17.4568 15.679 17.4568H30.6616C31.239 17.4568 31.707 17.9335 31.707 18.5217Z" fill="white"/>
<path d="M15.679 32.6324C15.1018 32.6324 14.6338 32.1555 14.6338 31.5674C14.6338 30.9793 15.1018 30.5024 15.679 30.5024H22.125C22.7024 30.5024 23.1704 30.9793 23.1704 31.5674C23.1704 32.1555 22.7024 32.6324 22.125 32.6324H15.679Z" fill="white"/>
<path fill-rule="evenodd" clip-rule="evenodd" d="M43.2927 16.3373C43.2927 13.5671 41.8629 11.001 39.5283 9.581L25.6053 1.11248C23.1667 -0.370841 20.1256 -0.370826 17.6869 1.11252L3.76432 9.581C1.42972 11.001 8.62225e-07 13.5671 7.43369e-07 16.3372L0 33.6631C-1.18854e-07 36.4333 1.42977 38.9994 3.76442 40.4194L17.687 48.8876C20.1257 50.3708 23.1666 50.3708 25.6052 48.8876L39.5282 40.4194C41.8629 38.9994 43.2927 36.4333 43.2927 33.6631V26.4201H48.9547C49.532 26.4201 50 25.9433 50 25.3551C50 24.767 49.532 24.2902 48.9547 24.2902H43.2927V16.3373ZM40.8537 24.2902V16.3373C40.8537 14.4418 39.8754 12.6861 38.278 11.7145L24.3551 3.24603C22.6865 2.23113 20.6057 2.23114 18.9372 3.24606L5.01461 11.7145C3.41725 12.6861 2.43902 14.4418 2.43902 16.3372V33.6631C2.43902 35.5585 3.41728 37.3143 5.01468 38.2858L18.9373 46.754C20.6058 47.7688 22.6865 47.7688 24.355 46.754L38.278 38.2858C39.8754 37.3143 40.8537 35.5585 40.8537 33.6631V26.4201H15.6794C15.1022 26.4201 14.6342 25.9433 14.6342 25.3551C14.6342 24.767 15.1022 24.2902 15.6794 24.2902H40.8537Z" fill="white"/>
</g>
<defs>
<clipPath id="clip0_4076_1245">
<rect width="50" height="50" fill="white"/>
</clipPath>
</defs>
</svg>
