<svg width="49" height="49" viewBox="0 0 49 49" fill="none" xmlns="http://www.w3.org/2000/svg">
<g clip-path="url(#clip0_4076_1250)">
<path fill-rule="evenodd" clip-rule="evenodd" d="M20.7003 4.98304V14.1186C20.7003 15.5176 19.5343 16.6517 18.096 16.6517C16.6577 16.6517 15.4917 15.5176 15.4917 14.1186V4.98304C15.4917 3.58407 16.6577 2.44999 18.096 2.44999C19.5343 2.44999 20.7003 3.58407 20.7003 4.98304ZM12.9728 4.98304C12.9728 2.23098 15.2665 0 18.096 0C20.9255 0 23.2192 2.23098 23.2192 4.98304V14.1186C23.2192 16.8706 20.9255 19.1017 18.096 19.1017C15.2665 19.1017 12.9728 16.8706 12.9728 14.1186V4.98304ZM37.973 7.72482C35.5486 7.72482 33.5832 9.63634 33.5832 11.9944C33.5832 14.3524 35.5486 16.264 37.973 16.264C40.3973 16.264 42.3626 14.3524 42.3626 11.9944C42.3626 9.63634 40.3973 7.72482 37.973 7.72482ZM44.8815 11.9944C44.8815 8.28329 41.7884 5.27483 37.973 5.27482C34.1574 5.27482 31.0644 8.28329 31.0644 11.9944C31.0644 15.7055 34.1574 18.7139 37.973 18.7139C41.7884 18.7139 44.8815 15.7055 44.8815 11.9944ZM40.5154 39.9847C43.3536 37.1774 45.3662 33.699 46.3921 29.9205C46.6252 29.0618 46.387 28.2928 45.7947 27.6685C45.1698 27.0097 44.1488 26.5348 42.9721 26.5348H24.5H6.02794C4.85118 26.5348 3.83013 27.0097 3.20526 27.6685C2.61301 28.2928 2.3748 29.0618 2.60795 29.9205C3.6338 33.699 5.64637 37.1774 8.4846 39.9847C12.7395 44.1933 18.5013 46.55 24.5 46.55C30.4987 46.55 36.2605 44.1933 40.5154 39.9847ZM48.8275 30.5461C49.7747 27.0575 46.6818 24.0848 42.9721 24.0848H24.5H6.02794C2.31818 24.0848 -0.774656 27.0575 0.172519 30.5461C1.30836 34.7296 3.5381 38.5864 6.68857 41.7025C11.4124 46.375 17.8194 49 24.5 49C31.1806 49 37.5876 46.375 42.3114 41.7025C45.4619 38.5864 47.6916 34.7296 48.8275 30.5461Z" fill="white"/>
</g>
<defs>
<clipPath id="clip0_4076_1250">
<rect width="49" height="49" fill="white"/>
</clipPath>
</defs>
</svg>
